<svg xmlns="http://www.w3.org/2000/svg" xmlns:xlink="http://www.w3.org/1999/xlink" xmlns:lucid="lucid" width="1232" height="3120"><g transform="translate(-319 20)" lucid:page-tab-id="0_0"><path d="M860 0c22.1 0 40 17.9 40 40s-17.9 40-40 40H740c-22.1 0-40-17.9-40-40s17.9-40 40-40z" stroke="#5e5e5e" stroke-width="3" fill="#fff"/><use xlink:href="#a" transform="matrix(1,0,0,1,705,5) translate(11.825987654321006 26.52777777777778)"/><use xlink:href="#b" transform="matrix(1,0,0,1,705,5) translate(54.94327160493827 53.19444444444445)"/><path d="M800 82.5V100" stroke="#5e5e5e" stroke-width="2" fill="none"/><path d="M801 82.53h-2V81.5h2z" stroke="#5e5e5e" stroke-width=".05" fill="#5e5e5e"/><path d="M800 115.26L795.36 101h9.28z" stroke="#5e5e5e" stroke-width="2" fill="#5e5e5e"/><path d="M680 126c0-3.3 2.7-6 6-6h228c3.3 0 6 2.7 6 6v145.33c0 3.32-2.7 6-6 6H686c-3.3 0-6-2.68-6-6z" stroke="#5e5e5e" stroke-width="3" fill="#fff"/><use xlink:href="#c" transform="matrix(1,0,0,1,692,132) translate(3.5864197530864317 17.77777777777778)"/><use xlink:href="#d" transform="matrix(1,0,0,1,692,132) translate(33.15432098765433 17.77777777777778)"/><use xlink:href="#e" transform="matrix(1,0,0,1,692,132) translate(51.67283950617285 17.77777777777778)"/><use xlink:href="#f" transform="matrix(1,0,0,1,692,132) translate(70.80864197530865 17.77777777777778)"/><use xlink:href="#g" transform="matrix(1,0,0,1,692,132) translate(22.87654320987656 44.44444444444444)"/><use xlink:href="#h" transform="matrix(1,0,0,1,692,132) translate(52.44444444444446 44.44444444444444)"/><use xlink:href="#i" transform="matrix(1,0,0,1,692,132) translate(8.06172839506172 71.11111111111111)"/><use xlink:href="#j" transform="matrix(1,0,0,1,692,132) translate(56.148148148148145 71.11111111111111)"/><use xlink:href="#g" transform="matrix(1,0,0,1,692,132) translate(23.18518518518519 97.77777777777777)"/><use xlink:href="#k" transform="matrix(1,0,0,1,692,132) translate(52.75308641975309 97.77777777777777)"/><use xlink:href="#e" transform="matrix(1,0,0,1,692,132) translate(161.33333333333334 97.77777777777777)"/><use xlink:href="#l" transform="matrix(1,0,0,1,692,132) translate(180.46913580246914 97.77777777777777)"/><use xlink:href="#g" transform="matrix(1,0,0,1,692,132) translate(77.78395061728395 124.44444444444446)"/><use xlink:href="#m" transform="matrix(1,0,0,1,692,132) translate(107.35185185185185 124.44444444444446)"/><path d="M800 279.83v17.5" stroke="#5e5e5e" stroke-width="2" fill="none"/><path d="M801 279.86h-2v-1.03h2z" stroke="#5e5e5e" stroke-width=".05" fill="#5e5e5e"/><path d="M800 312.6l-4.64-14.27h9.28z" stroke="#5e5e5e" stroke-width="2" fill="#5e5e5e"/><path d="M720 323.33c0-3.3 2.7-6 6-6h148c3.3 0 6 2.7 6 6V374c0 3.3-2.7 6-6 6H726c-3.3 0-6-2.7-6-6z" stroke="#5e5e5e" stroke-width="3" fill="#fff"/><use xlink:href="#c" transform="matrix(1,0,0,1,732,329.33333333333337) translate(8.524691358024697 17.77777777777778)"/><use xlink:href="#n" transform="matrix(1,0,0,1,732,329.33333333333337) translate(38.092592592592595 17.77777777777778)"/><use xlink:href="#e" transform="matrix(1,0,0,1,732,329.33333333333337) translate(55.376543209876544 17.77777777777778)"/><use xlink:href="#o" transform="matrix(1,0,0,1,732,329.33333333333337) translate(74.51234567901234 17.77777777777778)"/><use xlink:href="#g" transform="matrix(1,0,0,1,732,329.33333333333337) translate(93.03086419753086 17.77777777777778)"/><use xlink:href="#p" transform="matrix(1,0,0,1,732,329.33333333333337) translate(122.59876543209876 17.77777777777778)"/><use xlink:href="#e" transform="matrix(1,0,0,1,732,329.33333333333337) translate(13.123456790123463 44.44444444444444)"/><use xlink:href="#o" transform="matrix(1,0,0,1,732,329.33333333333337) translate(32.25925925925927 44.44444444444444)"/><use xlink:href="#g" transform="matrix(1,0,0,1,732,329.33333333333337) translate(50.77777777777778 44.44444444444444)"/><use xlink:href="#q" transform="matrix(1,0,0,1,732,329.33333333333337) translate(80.34567901234567 44.44444444444444)"/><use xlink:href="#e" transform="matrix(1,0,0,1,732,329.33333333333337) translate(91.39506172839506 44.44444444444444)"/><use xlink:href="#r" transform="matrix(1,0,0,1,732,329.33333333333337) translate(110.53086419753086 44.44444444444444)"/><path d="M800 382.5v28.9" stroke="#5e5e5e" stroke-width="2" fill="none"/><path d="M801 382.53h-2v-1.03h2z" stroke="#5e5e5e" stroke-width=".05" fill="#5e5e5e"/><path d="M800 426.65l-4.64-14.26h9.28z" stroke="#5e5e5e" stroke-width="2" fill="#5e5e5e"/><path d="M794.38 432.1c3.1-1.16 8.14-1.16 11.24 0l68.76 25.8c3.1 1.16 3.1 3.04 0 4.2l-68.76 25.8c-3.1 1.16-8.14 1.16-11.24 0l-68.76-25.8c-3.1-1.16-3.1-3.04 0-4.2z" stroke="#5e5e5e" stroke-width="3" fill="#fff"/><use xlink:href="#s" transform="matrix(1,0,0,1,725,435) translate(50.62228395061728 30.27777777777778)"/><use xlink:href="#t" transform="matrix(1,0,0,1,725,435) translate(67.90623456790124 30.27777777777778)"/><use xlink:href="#u" transform="matrix(1,0,0,1,725,435) translate(87.04203703703703 30.27777777777778)"/><path d="M801 504.72h-2v-13.6h2z" stroke="#5e5e5e" stroke-width=".05" fill="#5e5e5e"/><path d="M801 490.14v1h-2v-1.06z" fill="#5e5e5e"/><path d="M801.02 490.12v1.04H799v-1.1zm-2 1H801v-.96l-1.96-.06z" stroke="#5e5e5e" stroke-width=".05" fill="#5e5e5e"/><path d="M800 537.43l-3.7-11.37h7.4z" fill="#5e5e5e"/><path d="M800 540.67l-4.75-14.6h2.1l2.65 8.13 2.65-8.14h2.1z" stroke="#5e5e5e" stroke-width=".05" fill="#5e5e5e"/><use xlink:href="#v" transform="matrix(1,0,0,1,791.604938271605,504.7234717013909) translate(0.005000000000000782 14.222222222222223)"/><path d="M795.2 543.6c2.65-2 6.95-2 9.6 0l70.4 52.8c2.65 2 2.65 5.2 0 7.2l-70.4 52.8c-2.65 2-6.95 2-9.6 0l-70.4-52.8c-2.65-2-2.65-5.2 0-7.2z" stroke="#5e5e5e" stroke-width="3" fill="#fff"/><use xlink:href="#w" transform="matrix(1,0,0,1,725,545) translate(21.393888888888892 53.78777777777778)"/><use xlink:href="#x" transform="matrix(1,0,0,1,725,545) translate(56.17783950617284 80.45444444444445)"/><use xlink:href="#r" transform="matrix(1,0,0,1,725,545) translate(81.48648148148148 80.45444444444445)"/><path d="M801 668.94h-2v-8.6h2z" stroke="#5e5e5e" stroke-width=".05" fill="#5e5e5e"/><path d="M801 659.35v1h-2v-1.04z" fill="#5e5e5e"/><path d="M801.02 659.33v1.05H799v-1.1zm-2 1H801v-.95l-1.96-.05z" stroke="#5e5e5e" stroke-width=".05" fill="#5e5e5e"/><path d="M800 696.65l-2.07-6.37h4.14z" fill="#5e5e5e"/><path d="M800 699.9l-3.12-9.62h2.1l1.02 3.14 1.02-3.14h2.1z" stroke="#5e5e5e" stroke-width=".05" fill="#5e5e5e"/><use xlink:href="#v" transform="matrix(1,0,0,1,791.604938271605,668.9431949652759) translate(0.005000000000000782 14.222222222222223)"/><path d="M794.38 702.1c3.1-1.16 8.14-1.16 11.24 0l68.76 25.8c3.1 1.16 3.1 3.04 0 4.2l-68.76 25.8c-3.1 1.16-8.14 1.16-11.24 0l-68.76-25.8c-3.1-1.16-3.1-3.04 0-4.2z" stroke="#5e5e5e" stroke-width="3" fill="#fff"/><use xlink:href="#y" transform="matrix(1,0,0,1,725,705) translate(53.739567901234565 30.27777777777778)"/><use xlink:href="#t" transform="matrix(1,0,0,1,725,705) translate(64.78895061728394 30.27777777777778)"/><use xlink:href="#u" transform="matrix(1,0,0,1,725,705) translate(83.92475308641974 30.27777777777778)"/><path d="M801 801.4h-2v-.73h2zm0-22.07h-2V761.1h2z" stroke="#5e5e5e" stroke-width=".05" fill="#5e5e5e"/><path d="M801 760.14v1h-2v-1.06z" fill="#5e5e5e"/><path d="M801.02 760.12v1.04H799v-1.1zm-2 1H801v-.96l-1.96-.06z" stroke="#5e5e5e" stroke-width=".05" fill="#5e5e5e"/><path d="M800 816.65l-4.64-14.26h9.28z" fill="#5e5e5e"/><path d="M800 819.9l-6-18.5h12zm-3.26-16.5L800 813.4l3.26-10.03z" stroke="#5e5e5e" stroke-width=".05" fill="#5e5e5e"/><use xlink:href="#v" transform="matrix(1,0,0,1,791.604938271605,779.3333333333334) translate(0.005000000000000782 14.222222222222223)"/><path d="M794.38 822.1c3.1-1.16 8.14-1.16 11.24 0l68.76 25.8c3.1 1.16 3.1 3.04 0 4.2l-68.76 25.8c-3.1 1.16-8.14 1.16-11.24 0l-68.76-25.8c-3.1-1.16-3.1-3.04 0-4.2z" stroke="#5e5e5e" stroke-width="3" fill="#fff"/><use xlink:href="#z" transform="matrix(1,0,0,1,725,825) translate(53.739567901234565 30.27777777777778)"/><use xlink:href="#t" transform="matrix(1,0,0,1,725,825) translate(64.78895061728394 30.27777777777778)"/><use xlink:href="#u" transform="matrix(1,0,0,1,725,825) translate(83.92475308641974 30.27777777777778)"/><path d="M801 889.33h-2v-8.22h2z" stroke="#5e5e5e" stroke-width=".05" fill="#5e5e5e"/><path d="M801 880.14v1h-2v-1.06z" fill="#5e5e5e"/><path d="M801.02 880.12v1.04H799v-1.1zm-2 1H801v-.96l-1.96-.06z" stroke="#5e5e5e" stroke-width=".05" fill="#5e5e5e"/><path d="M800 916.65l-1.95-5.98h3.9z" fill="#5e5e5e"/><path d="M800 919.9l-3-9.23h2.1l.9 2.75.9-2.75h2.1z" stroke="#5e5e5e" stroke-width=".05" fill="#5e5e5e"/><use xlink:href="#v" transform="matrix(1,0,0,1,791.604938271605,889.3333333333334) translate(0.005000000000000782 14.222222222222223)"/><path d="M794.38 922.1c3.1-1.16 8.14-1.16 11.24 0l68.76 25.8c3.1 1.16 3.1 3.04 0 4.2l-68.76 25.8c-3.1 1.16-8.14 1.16-11.24 0l-68.76-25.8c-3.1-1.16-3.1-3.04 0-4.2z" stroke="#5e5e5e" stroke-width="3" fill="#fff"/><use xlink:href="#y" transform="matrix(1,0,0,1,725,925) translate(47.87537037037037 30.27777777777778)"/><use xlink:href="#A" transform="matrix(1,0,0,1,725,925) translate(58.924753086419756 30.27777777777778)"/><use xlink:href="#B" transform="matrix(1,0,0,1,725,925) translate(91.02351851851851 30.27777777777778)"/><path d="M623.04 951h-26.9l-2.65.7-1.8 1.8-.7 2.63V980h-2v-24.13l.92-3.42 2.53-2.53 3.42-.92h27.17zm97.33 0h-80.54v-2h80.54z" stroke="#5e5e5e" stroke-width=".05" fill="#5e5e5e"/><path d="M721.14 950.24l.88.76h-1.68v-2h1.95z" fill="#5e5e5e"/><path d="M721.18 950.24l.9.78h-1.76V949h2.02zm-.8-1.22V951h1.58l-.85-.73 1.13-1.23z" stroke="#5e5e5e" stroke-width=".05" fill="#5e5e5e"/><path d="M590 995.26L585.36 981h9.28z" fill="#5e5e5e"/><path d="M590 998.5l-6-18.5h12zm-3.26-16.5l3.26 10.03 3.26-10.03z" stroke="#5e5e5e" stroke-width=".05" fill="#5e5e5e"/><use xlink:href="#v" transform="matrix(1,0,0,1,623.038413493147,939.3333333333334) translate(0.005000000000000782 14.222222222222223)"/><path d="M440 1006c0-3.3 2.7-6 6-6h288c3.3 0 6 2.7 6 6v118.67c0 3.3-2.7 6-6 6H446c-3.3 0-6-2.7-6-6z" stroke="#5e5e5e" stroke-width="3" fill="#fff"/><use xlink:href="#C" transform="matrix(1,0,0,1,452,1012) translate(15.098765432098787 44.52777777777778)"/><use xlink:href="#e" transform="matrix(1,0,0,1,452,1012) translate(147.01234567901236 44.52777777777778)"/><use xlink:href="#D" transform="matrix(1,0,0,1,452,1012) translate(166.14814814814815 44.52777777777778)"/><use xlink:href="#E" transform="matrix(1,0,0,1,452,1012) translate(3.30864197530866 71.19444444444446)"/><use xlink:href="#e" transform="matrix(1,0,0,1,452,1012) translate(146.33333333333334 71.19444444444446)"/><use xlink:href="#F" transform="matrix(1,0,0,1,452,1012) translate(165.46913580246914 71.19444444444446)"/><path d="M1097.55 949.92l2.53 2.53.92 3.42V980h-2v-23.87l-.7-2.64-1.8-1.8-2.63-.7h-68.5v-2h68.76zM879.63 951v-2h122.13v2z" stroke="#5e5e5e" stroke-width=".05" fill="#5e5e5e"/><path d="M879.66 951h-1.95l1.16-1.24-.88-.76h1.68z" fill="#5e5e5e"/><path d="M879.68 951.02h-2.02l1.16-1.26-.9-.78h1.76zm-1.64-2l.85.73-1.13 1.23h1.86V949z" stroke="#5e5e5e" stroke-width=".05" fill="#5e5e5e"/><path d="M1100 995.26l-4.64-14.26h9.28z" fill="#5e5e5e"/><path d="M1100 998.5l-6-18.5h12zm-3.26-16.5l3.26 10.03 3.26-10.03z" stroke="#5e5e5e" stroke-width=".05" fill="#5e5e5e"/><use xlink:href="#G" transform="matrix(1,0,0,1,1001.7640556426554,939.3333333333334) translate(0.005000000000000782 14.222222222222223)"/><path d="M800 1006c0-3.3 2.7-6 6-6h588c3.3 0 6 2.7 6 6v118.67c0 3.3-2.7 6-6 6H806c-3.3 0-6-2.7-6-6z" stroke="#5e5e5e" stroke-width="3" fill="#fff"/><use xlink:href="#C" transform="matrix(1,0,0,1,812,1012) translate(215.56172839506172 17.94444444444445)"/><use xlink:href="#H" transform="matrix(1,0,0,1,812,1012) translate(347.4753086419753 17.94444444444445)"/><use xlink:href="#I" transform="matrix(1,0,0,1,812,1012) translate(12.074074074073962 44.611111111111114)"/><use xlink:href="#E" transform="matrix(1,0,0,1,812,1012) translate(210.00617283950618 71.27777777777779)"/><use xlink:href="#H" transform="matrix(1,0,0,1,812,1012) translate(353.03086419753083 71.27777777777779)"/><use xlink:href="#J" transform="matrix(1,0,0,1,812,1012) translate(-0.3950617283952056 97.94444444444446)"/><path d="M590 1133.17v26.16c0 3.32 2.7 6 6 6h198c3.3 0 6 2.7 6 6v8.67" stroke="#5e5e5e" stroke-width="2" fill="none"/><path d="M591 1133.2h-2v-1.03h2z" stroke="#5e5e5e" stroke-width=".05" fill="#5e5e5e"/><path d="M800 1195.26l-4.64-14.26h9.28z" stroke="#5e5e5e" stroke-width="2" fill="#5e5e5e"/><path d="M720 1206c0-3.3 2.7-6 6-6h148c3.3 0 6 2.7 6 6v28c0 3.3-2.7 6-6 6H726c-3.3 0-6-2.7-6-6z" stroke="#5e5e5e" stroke-width="3" fill="#fff"/><use xlink:href="#K" transform="matrix(1,0,0,1,732,1212) translate(52.598765432098766 17.77777777777778)"/><path d="M1100 1133.17v26.16c0 3.32-2.7 6-6 6H806c-3.3 0-6 2.7-6 6v8.67" stroke="#5e5e5e" stroke-width="2" fill="none"/><path d="M1101 1133.2h-2v-1.03h2z" stroke="#5e5e5e" stroke-width=".05" fill="#5e5e5e"/><path d="M800 1195.26l-4.64-14.26h9.28z" stroke="#5e5e5e" stroke-width="2" fill="#5e5e5e"/><path d="M781.5 787.67H436.13l-2.64.7-1.8 1.8-.7 2.63v482.57l.7 2.64 1.8 1.8 2.63.7h357.74l2.64-.7 1.8-1.8.7-2.63v-32.87h2v33.13l-.92 3.42-2.53 2.53-3.42.92H435.87l-3.42-.92-2.53-2.53-.92-3.42v-483.1l.92-3.4 2.53-2.54 3.42-.93H781.5z" stroke="#5e5e5e" stroke-width=".05" fill="#5e5e5e"/><path d="M801 1242.53h-2v-1.03h2z" fill="#5e5e5e"/><path d="M801.02 1242.55H799v-1.08H801zm-2-1.02v.97H801v-.97z" stroke="#5e5e5e" stroke-width=".05" fill="#5e5e5e"/><path d="M791.6 785v3.34l-9.1 2.96v-9.27z" fill="#5e5e5e"/><path d="M791.6 783.94v2.1l-8.1-2.63v6.53l8.1-2.64v2.1l-10.1 3.28v-12.03zM1411 1284.13l-.92 3.42-2.53 2.53-3.42.92h-598l-2.64.7-1.8 1.8-.7 2.63V1340h-2v-44.13l.92-3.42 2.53-2.53 3.42-.92h598l2.64-.7 1.8-1.8.7-2.63v-129.64h2zm-3.45-434.2l2.53 2.52.92 3.42v277.03h-2V856.13l-.7-2.64-1.8-1.8-2.63-.7H879.63v-2h524.5z" stroke="#5e5e5e" stroke-width=".05" fill="#5e5e5e"/><path d="M879.66 851h-1.95l1.16-1.24-.88-.76h1.68z" fill="#5e5e5e"/><path d="M879.68 851.02h-2.02l1.16-1.26-.9-.78h1.76zm-1.64-2l.85.73-1.13 1.23h1.86V849z" stroke="#5e5e5e" stroke-width=".05" fill="#5e5e5e"/><path d="M800 1355.26l-4.64-14.26h9.28z" fill="#5e5e5e"/><path d="M800 1358.5l-6-18.5h12zm-3.26-16.5l3.26 10.03 3.26-10.03z" stroke="#5e5e5e" stroke-width=".05" fill="#5e5e5e"/><use xlink:href="#G" transform="matrix(1,0,0,1,1398.1975308641975,1132.899858111791) translate(0.005000000000000782 14.222222222222223)"/><path d="M720 1366c0-3.3 2.7-6 6-6h148c3.3 0 6 2.7 6 6v28c0 3.3-2.7 6-6 6H726c-3.3 0-6-2.7-6-6z" stroke="#5e5e5e" stroke-width="3" fill="#fff"/><use xlink:href="#L" transform="matrix(1,0,0,1,732,1372) translate(52.598765432098766 17.77777777777778)"/><path d="M781.5 678.33H416.13l-2.64.72-1.8 1.77-.7 2.65v740.4l.7 2.64 1.8 1.8 2.63.7h377.74l2.64-.7 1.8-1.8.7-2.63v-21.37h2v21.63l-.92 3.42-2.53 2.53-3.42.92H415.87l-3.42-.92-2.53-2.53-.92-3.42V683.2l.92-3.4 2.53-2.54 3.42-.93H781.5z" stroke="#5e5e5e" stroke-width=".05" fill="#5e5e5e"/><path d="M801 1402.53h-2v-1.03h2z" fill="#5e5e5e"/><path d="M801.02 1402.55H799v-1.08H801zm-2-1.02v.97H801v-.97z" stroke="#5e5e5e" stroke-width=".05" fill="#5e5e5e"/><path d="M791.6 675.66V679l-9.1 2.97v-9.27z" fill="#5e5e5e"/><path d="M791.6 674.6v2.1l-8.1-2.63v6.52l8.1-2.64v2.1l-10.1 3.3V671.3zM1461 1452.63l-.92 3.42-2.53 2.53-3.42.92h-648l-2.64.7-1.8 1.8-.7 2.63V1480h-2v-15.63l.92-3.42 2.53-2.53 3.42-.92h648l2.64-.7 1.8-1.8.7-2.63v-288.14h2zm-3.45-722.7l2.53 2.52.92 3.42v407.03h-2V736.13l-.7-2.64-1.8-1.8-2.63-.7H879.63v-2h574.5z" stroke="#5e5e5e" stroke-width=".05" fill="#5e5e5e"/><path d="M879.66 731h-1.95l1.16-1.24-.88-.76h1.68z" fill="#5e5e5e"/><path d="M879.68 731.02h-2.02l1.16-1.26-.9-.78h1.76zm-1.64-2l.85.73-1.13 1.23h1.86V729z" stroke="#5e5e5e" stroke-width=".05" fill="#5e5e5e"/><path d="M800 1495.26l-4.64-14.26h9.28z" fill="#5e5e5e"/><path d="M800 1498.5l-6-18.5h12zm-3.26-16.5l3.26 10.03 3.26-10.03z" stroke="#5e5e5e" stroke-width=".05" fill="#5e5e5e"/><use xlink:href="#G" transform="matrix(1,0,0,1,1448.1975308641975,1142.899858111791) translate(0.005000000000000782 14.222222222222223)"/><path d="M680 1506c0-3.3 2.7-6 6-6h228c3.3 0 6 2.7 6 6v53.33c0 3.32-2.7 6-6 6H686c-3.3 0-6-2.68-6-6z" stroke="#5e5e5e" stroke-width="3" fill="#fff"/><use xlink:href="#M" transform="matrix(1,0,0,1,692,1512) translate(19.543209876543216 17.77777777777778)"/><use xlink:href="#e" transform="matrix(1,0,0,1,692,1512) translate(86.0246913580247 17.77777777777778)"/><use xlink:href="#N" transform="matrix(1,0,0,1,692,1512) translate(105.1604938271605 17.77777777777778)"/><use xlink:href="#O" transform="matrix(1,0,0,1,692,1512) translate(7.753086419753089 44.44444444444444)"/><use xlink:href="#e" transform="matrix(1,0,0,1,692,1512) translate(86.7037037037037 44.44444444444444)"/><use xlink:href="#P" transform="matrix(1,0,0,1,692,1512) translate(105.83950617283949 44.44444444444444)"/><path d="M800 1567.83V1600" stroke="#5e5e5e" stroke-width="2" fill="none"/><path d="M801 1567.86h-2v-1.03h2z" stroke="#5e5e5e" stroke-width=".05" fill="#5e5e5e"/><path d="M800 1615.26l-4.64-14.26h9.28z" stroke="#5e5e5e" stroke-width="2" fill="#5e5e5e"/><path d="M720 1626c0-3.3 2.7-6 6-6h148c3.3 0 6 2.7 6 6v53.33c0 3.32-2.7 6-6 6H726c-3.3 0-6-2.68-6-6z" stroke="#5e5e5e" stroke-width="3" fill="#fff"/><use xlink:href="#Q" transform="matrix(1,0,0,1,732,1632) translate(7.228395061728392 17.77777777777778)"/><use xlink:href="#H" transform="matrix(1,0,0,1,732,1632) translate(115.80864197530865 17.77777777777778)"/><use xlink:href="#R" transform="matrix(1,0,0,1,732,1632) translate(14.388888888888893 44.44444444444444)"/><path d="M800 1687.83V1700" stroke="#5e5e5e" stroke-width="2" fill="none"/><path d="M801 1687.86h-2v-1.03h2z" stroke="#5e5e5e" stroke-width=".05" fill="#5e5e5e"/><path d="M800 1715.26l-4.64-14.26h9.28z" stroke="#5e5e5e" stroke-width="2" fill="#5e5e5e"/><path d="M720 1726c0-3.3 2.7-6 6-6h148c3.3 0 6 2.7 6 6v28c0 3.3-2.7 6-6 6H726c-3.3 0-6-2.7-6-6z" stroke="#5e5e5e" stroke-width="3" fill="#fff"/><use xlink:href="#S" transform="matrix(1,0,0,1,732,1732) translate(49.48148148148148 17.77777777777778)"/><path d="M781.5 402.46H336.13l-2.64.7-1.8 1.8-.7 2.63v1386.27l.7 2.64 1.8 1.8 2.63.7h457.74l2.64-.7 1.8-1.8.7-2.63v-31.37h2v31.63l-.92 3.42-2.53 2.53-3.42.92H335.87l-3.42-.92-2.53-2.53-.92-3.42V407.33l.92-3.42 2.53-2.52 3.42-.92H781.5z" stroke="#5e5e5e" stroke-width=".05" fill="#5e5e5e"/><path d="M801 1762.53h-2v-1.03h2z" fill="#5e5e5e"/><path d="M801.02 1762.55H799v-1.08H801zm-2-1.02v.97H801v-.97z" stroke="#5e5e5e" stroke-width=".05" fill="#5e5e5e"/><path d="M796.76 401.46l-14.26 4.63v-9.28z" fill="#5e5e5e"/><path d="M800 401.46l-18.5 6v-12zm-16.5 3.26l10.03-3.26-10.03-3.26zM1491 1812.63l-.92 3.42-2.53 2.53-3.42.92h-678l-2.64.7-1.8 1.8-.7 2.63V1840h-2v-15.63l.92-3.42 2.53-2.53 3.42-.92h678l2.64-.7 1.8-1.8.7-2.63v-603.14h2zm-3.45-1352.7l2.53 2.52.92 3.42v722.03h-2V466.13l-.7-2.64-1.8-1.8-2.63-.7H879.63v-2h604.5z" stroke="#5e5e5e" stroke-width=".05" fill="#5e5e5e"/><path d="M879.66 461h-1.95l1.16-1.24-.88-.76h1.68z" fill="#5e5e5e"/><path d="M879.68 461.02h-2.02l1.16-1.26-.9-.78h1.76zm-1.64-2l.85.73-1.13 1.23h1.86v-1.96z" stroke="#5e5e5e" stroke-width=".05" fill="#5e5e5e"/><path d="M800 1855.26l-4.64-14.26h9.28z" fill="#5e5e5e"/><path d="M800 1858.5l-6-18.5h12zm-3.26-16.5l3.26 10.03 3.26-10.03z" stroke="#5e5e5e" stroke-width=".05" fill="#5e5e5e"/><use xlink:href="#G" transform="matrix(1,0,0,1,1478.1975308641975,1187.8998581117912) translate(0.005000000000000782 14.222222222222223)"/><path d="M650 1866c0-3.3 2.7-6 6-6h288c3.3 0 6 2.7 6 6v28c0 3.3-2.7 6-6 6H656c-3.3 0-6-2.7-6-6z" stroke="#5e5e5e" stroke-width="3" fill="#fff"/><use xlink:href="#T" transform="matrix(1,0,0,1,662,1872) translate(35.376543209876544 17.77777777777778)"/><use xlink:href="#e" transform="matrix(1,0,0,1,662,1872) translate(72.41358024691358 17.77777777777778)"/><use xlink:href="#U" transform="matrix(1,0,0,1,662,1872) translate(91.54938271604938 17.77777777777778)"/><path d="M800 1902.5v17.5" stroke="#5e5e5e" stroke-width="2" fill="none"/><path d="M801 1902.53h-2v-1.03h2z" stroke="#5e5e5e" stroke-width=".05" fill="#5e5e5e"/><path d="M800 1935.26l-4.64-14.26h9.28z" stroke="#5e5e5e" stroke-width="2" fill="#5e5e5e"/><path d="M720 1946c0-3.3 2.7-6 6-6h148c3.3 0 6 2.7 6 6v54c-26.72-10.02-43.36-10.02-53.44-10.02-16 0-37.28 10.02-53.28 10.02-9.92 0-26.72 0-53.28-10.02z" stroke="#5e5e5e" stroke-width="3" fill="#fff"/><use xlink:href="#V" transform="matrix(1,0,0,1,725,1945) translate(59.5679012345679 25.27777777777778)"/><path d="M800 1997.24V2020" stroke="#5e5e5e" stroke-width="2" fill="none"/><path d="M801 1997.27h-2v-.8l2-.45z" stroke="#5e5e5e" stroke-width=".05" fill="#5e5e5e"/><path d="M800 2035.26l-4.64-14.26h9.28z" stroke="#5e5e5e" stroke-width="2" fill="#5e5e5e"/><path d="M720 2046c0-3.3 2.7-6 6-6h148c3.3 0 6 2.7 6 6v48c0 3.3-2.7 6-6 6H726c-3.3 0-6-2.7-6-6z" stroke="#5e5e5e" stroke-width="3" fill="#fff"/><use xlink:href="#c" transform="matrix(1,0,0,1,732,2052) translate(31.95061728395062 17.77777777777778)"/><use xlink:href="#W" transform="matrix(1,0,0,1,732,2052) translate(61.51851851851852 17.77777777777778)"/><use xlink:href="#e" transform="matrix(1,0,0,1,732,2052) translate(72.5679012345679 17.77777777777778)"/><use xlink:href="#X" transform="matrix(1,0,0,1,732,2052) translate(91.7037037037037 17.77777777777778)"/><use xlink:href="#g" transform="matrix(1,0,0,1,732,2052) translate(31.95061728395062 44.44444444444444)"/><use xlink:href="#q" transform="matrix(1,0,0,1,732,2052) translate(61.51851851851852 44.44444444444444)"/><use xlink:href="#e" transform="matrix(1,0,0,1,732,2052) translate(72.5679012345679 44.44444444444444)"/><use xlink:href="#r" transform="matrix(1,0,0,1,732,2052) translate(91.7037037037037 44.44444444444444)"/><path d="M800 2102.5v38.9" stroke="#5e5e5e" stroke-width="2" fill="none"/><path d="M801 2102.53h-2v-1.03h2z" stroke="#5e5e5e" stroke-width=".05" fill="#5e5e5e"/><path d="M800 2156.65l-4.64-14.26h9.28z" stroke="#5e5e5e" stroke-width="2" fill="#5e5e5e"/><path d="M794.38 2162.1c3.1-1.16 8.14-1.16 11.24 0l68.76 25.8c3.1 1.16 3.1 3.04 0 4.2l-68.76 25.8c-3.1 1.16-8.14 1.16-11.24 0l-68.76-25.8c-3.1-1.16-3.1-3.04 0-4.2z" stroke="#5e5e5e" stroke-width="3" fill="#fff"/><use xlink:href="#y" transform="matrix(1,0,0,1,725,2165) translate(53.739567901234565 30.27777777777778)"/><use xlink:href="#t" transform="matrix(1,0,0,1,725,2165) translate(64.78895061728394 30.27777777777778)"/><use xlink:href="#r" transform="matrix(1,0,0,1,725,2165) translate(83.92475308641974 30.27777777777778)"/><path d="M801 2261.4h-2v-.73h2zm0-22.07h-2v-18.22h2z" stroke="#5e5e5e" stroke-width=".05" fill="#5e5e5e"/><path d="M801 2220.14v1h-2v-1.06z" fill="#5e5e5e"/><path d="M801.02 2220.12v1.04H799v-1.1zm-2 1H801v-.96l-1.96-.06z" stroke="#5e5e5e" stroke-width=".05" fill="#5e5e5e"/><path d="M800 2276.65l-4.64-14.26h9.28z" fill="#5e5e5e"/><path d="M800 2279.9l-6-18.5h12zm-3.26-16.5l3.26 10.02 3.26-10.03z" stroke="#5e5e5e" stroke-width=".05" fill="#5e5e5e"/><use xlink:href="#v" transform="matrix(1,0,0,1,791.604938271605,2239.3333333333335) translate(0.005000000000000782 14.222222222222223)"/><path d="M794.38 2282.1c3.1-1.16 8.14-1.16 11.24 0l68.76 25.8c3.1 1.16 3.1 3.04 0 4.2l-68.76 25.8c-3.1 1.16-8.14 1.16-11.24 0l-68.76-25.8c-3.1-1.16-3.1-3.04 0-4.2z" stroke="#5e5e5e" stroke-width="3" fill="#fff"/><use xlink:href="#z" transform="matrix(1,0,0,1,725,2285) translate(53.739567901234565 30.27777777777778)"/><use xlink:href="#t" transform="matrix(1,0,0,1,725,2285) translate(64.78895061728394 30.27777777777778)"/><use xlink:href="#u" transform="matrix(1,0,0,1,725,2285) translate(83.92475308641974 30.27777777777778)"/><path d="M801 2348.64h-2v-7.53h2z" stroke="#5e5e5e" stroke-width=".05" fill="#5e5e5e"/><path d="M801 2340.14v1h-2v-1.06z" fill="#5e5e5e"/><path d="M801.02 2340.12v1.04H799v-1.1zm-2 1H801v-.96l-1.96-.06z" stroke="#5e5e5e" stroke-width=".05" fill="#5e5e5e"/><path d="M800 2375.26l-1.72-5.3h3.44z" fill="#5e5e5e"/><path d="M800 2378.5l-2.77-8.53h2.1l.67 2.06.67-2.06h2.1z" stroke="#5e5e5e" stroke-width=".05" fill="#5e5e5e"/><g><use xlink:href="#v" transform="matrix(1,0,0,1,791.604938271605,2348.6381876832634) translate(0.005000000000000782 14.222222222222223)"/></g><path d="M720 2386c0-3.3 2.7-6 6-6h148c3.3 0 6 2.7 6 6v68c0 3.3-2.7 6-6 6H726c-3.3 0-6-2.7-6-6z" stroke="#5e5e5e" stroke-width="3" fill="#fff"/><g><use xlink:href="#Y" transform="matrix(1,0,0,1,732,2392) translate(4.8209876543210015 19.111111111111114)"/><use xlink:href="#H" transform="matrix(1,0,0,1,732,2392) translate(118.21604938271604 19.111111111111114)"/><use xlink:href="#Z" transform="matrix(1,0,0,1,732,2392) translate(-4.129629629629619 45.777777777777786)"/></g><path d="M800 2462.5v-1" stroke="#5e5e5e" stroke-width="2" fill="none"/><path d="M801 2462.53h-2v-1.03h2z" stroke="#5e5e5e" stroke-width=".05" fill="#5e5e5e"/><path d="M800 2475.26l-4.64-14.26h9.28z" stroke="#5e5e5e" stroke-width="2" fill="#5e5e5e"/><path d="M720 2486c0-3.3 2.7-6 6-6h148c3.3 0 6 2.7 6 6v28c0 3.3-2.7 6-6 6H726c-3.3 0-6-2.7-6-6z" stroke="#5e5e5e" stroke-width="3" fill="#fff"/><g><use xlink:href="#K" transform="matrix(1,0,0,1,732,2492) translate(52.598765432098766 17.77777777777778)"/></g><path d="M781.5 2251.67h-75.37l-2.64.7-1.8 1.8-.7 2.63v298.57l.7 2.64 1.8 1.8 2.63.7h87.74l2.64-.7 1.8-1.8.7-2.63v-32.87h2v33.13l-.92 3.42-2.53 2.53-3.42.92h-88.26l-3.42-.92-2.53-2.53-.92-3.42v-299.1l.92-3.4 2.53-2.54 3.42-.93h75.63z" stroke="#5e5e5e" stroke-width=".05" fill="#5e5e5e"/><path d="M801 2522.53h-2v-1.03h2z" fill="#5e5e5e"/><path d="M801.02 2522.55H799v-1.08H801zm-2-1.03v.98H801v-.97z" stroke="#5e5e5e" stroke-width=".05" fill="#5e5e5e"/><path d="M791.6 2249v3.34l-9.1 2.96v-9.27z" fill="#5e5e5e"/><path d="M791.6 2247.94v2.1l-8.1-2.63v6.53l8.1-2.64v2.1l-10.1 3.28v-12.03zM919.63 2572.63l-.92 3.42-2.52 2.53-3.4.92H806.12l-2.64.7-1.8 1.8-.7 2.63V2600h-2v-15.63l.92-3.42 2.53-2.53 3.42-.92H912.5l2.64-.7 1.78-1.8.7-2.63v-58.14h2zm-3.45-262.7l2.53 2.52.93 3.42v177.03h-2v-176.77l-.7-2.64-1.8-1.8-2.63-.7h-32.87v-2h33.14z" stroke="#5e5e5e" stroke-width=".05" fill="#5e5e5e"/><path d="M879.66 2311h-1.95l1.16-1.24-.88-.76h1.68z" fill="#5e5e5e"/><path d="M879.68 2311.03h-2.02l1.16-1.27-.9-.8h1.76zm-1.64-2l.85.72-1.13 1.22h1.86v-1.94z" stroke="#5e5e5e" stroke-width=".05" fill="#5e5e5e"/><path d="M800 2615.26l-4.64-14.26h9.28z" fill="#5e5e5e"/><path d="M800 2618.5l-6-18.5h12zm-3.26-16.5l3.26 10.03 3.26-10.03z" stroke="#5e5e5e" stroke-width=".05" fill="#5e5e5e"/><g><use xlink:href="#G" transform="matrix(1,0,0,1,906.8305804211132,2492.899858111791) translate(0.005000000000000782 14.222222222222223)"/></g><path d="M720 2626c0-3.3 2.7-6 6-6h148c3.3 0 6 2.7 6 6v28c0 3.3-2.7 6-6 6H726c-3.3 0-6-2.7-6-6z" stroke="#5e5e5e" stroke-width="3" fill="#fff"/><g><use xlink:href="#L" transform="matrix(1,0,0,1,732,2632) translate(52.598765432098766 17.77777777777778)"/></g><path d="M781.5 2139.12H676.13l-2.64.72-1.8 1.77-.7 2.66v539.6l.7 2.65 1.8 1.8 2.63.7h117.74l2.64-.7 1.8-1.8.7-2.63v-21.37h2v21.63l-.92 3.42-2.53 2.53-3.42.92H675.87l-3.42-.92-2.53-2.53-.92-3.42V2144l.92-3.42 2.53-2.53 3.42-.93H781.5z" stroke="#5e5e5e" stroke-width=".05" fill="#5e5e5e"/><path d="M801 2662.53h-2v-1.03h2z" fill="#5e5e5e"/><path d="M801.02 2662.55H799v-1.08H801zm-2-1.03v.98H801v-.97z" stroke="#5e5e5e" stroke-width=".05" fill="#5e5e5e"/><path d="M796.76 2138.12l-14.26 4.64v-9.27z" fill="#5e5e5e"/><path d="M800 2138.12l-18.5 6v-12zm-16.5 3.26l10.03-3.26-10.03-3.26zM951 2712.63l-.92 3.42-2.53 2.53-3.42.92h-138l-2.64.7-1.8 1.8-.7 2.63V2740h-2v-15.63l.92-3.42 2.53-2.53 3.42-.92h138l2.64-.7 1.8-1.8.7-2.63v-188.14h2zm-3.45-522.7l2.53 2.52.92 3.42v307.03h-2v-306.77l-.7-2.64-1.8-1.8-2.63-.7h-64.24v-2h64.5z" stroke="#5e5e5e" stroke-width=".05" fill="#5e5e5e"/><path d="M879.66 2191h-1.95l1.16-1.24-.88-.76h1.68z" fill="#5e5e5e"/><path d="M879.68 2191.03h-2.02l1.16-1.27-.9-.8h1.76zm-1.64-2l.85.72-1.13 1.22h1.86v-1.94z" stroke="#5e5e5e" stroke-width=".05" fill="#5e5e5e"/><path d="M800 2755.26l-4.64-14.26h9.28z" fill="#5e5e5e"/><path d="M800 2758.5l-6-18.5h12zm-3.26-16.5l3.26 10.03 3.26-10.03z" stroke="#5e5e5e" stroke-width=".05" fill="#5e5e5e"/><g><use xlink:href="#G" transform="matrix(1,0,0,1,938.1975308641976,2502.899858111791) translate(0.005000000000000782 14.222222222222223)"/></g><path d="M720 2766c0-3.3 2.7-6 6-6h148c3.3 0 6 2.7 6 6v54c-26.72-10.02-43.36-10.02-53.44-10.02-16 0-37.28 10.02-53.28 10.02-9.92 0-26.72 0-53.28-10.02z" stroke="#5e5e5e" stroke-width="3" fill="#fff"/><g><use xlink:href="#aa" transform="matrix(1,0,0,1,725,2765) translate(38.611111111111114 25.27777777777778)"/></g><path d="M800 2817.24v20c0 .07-.06.13-.13.13s-.13.06-.13.13v2.5" stroke="#5e5e5e" stroke-width="2" fill="none"/><path d="M801 2817.27h-2v-.8l2-.45z" stroke="#5e5e5e" stroke-width=".05" fill="#5e5e5e"/><path d="M799.74 2855.26L795.1 2841h9.28z" stroke="#5e5e5e" stroke-width="2" fill="#5e5e5e"/><path d="M746.7 2865.8c.86-3.2 4.24-5.8 7.55-5.8h126.67c3.3 0 5.3 2.6 4.45 5.8l-18.24 68.4c-.85 3.2-4.23 5.8-7.55 5.8H732.92c-3.32 0-5.3-2.6-4.46-5.8z" stroke="#5e5e5e" stroke-width="3" fill="#fff"/><g><use xlink:href="#ab" transform="matrix(1,0,0,1,731.9166666666667,2865) translate(32.36302469135802 26.52777777777778)"/><use xlink:href="#ac" transform="matrix(1,0,0,1,731.9166666666667,2865) translate(35.11611111111111 53.19444444444445)"/></g><path d="M806.92 2942.5v37.5" stroke="#5e5e5e" stroke-width="2" fill="none"/><path d="M807.92 2942.53h-2v-1.03h2z" stroke="#5e5e5e" stroke-width=".05" fill="#5e5e5e"/><path d="M806.92 2995.26l-4.64-14.26h9.27z" stroke="#5e5e5e" stroke-width="2" fill="#5e5e5e"/><path d="M854.92 3000c17.67 0 32 17.9 32 40s-14.33 40-32 40h-96c-17.68 0-32-17.9-32-40s14.32-40 32-40z" stroke="#5e5e5e" stroke-width="3" fill="#fff"/><g><use xlink:href="#ad" transform="matrix(1,0,0,1,731.9166666666667,3005) translate(59.62962962962963 39.65277777777778)"/></g><path d="M942.06 601H879.6v-2h62.46zm68.55 0h-44.93v-2h44.94z" stroke="#5e5e5e" stroke-width=".05" fill="#5e5e5e"/><path d="M879.64 601h-1.1l.18-.4-.28-1.6h1.2z" fill="#5e5e5e"/><path d="M879.66 601.02h-1.14l.17-.42-.3-1.63h1.26zm-1.2-2l.28 1.6-.15.36h1V599z" stroke="#5e5e5e" stroke-width=".05" fill="#5e5e5e"/><path d="M1025.88 600l-14.27 4.64v-9.28z" fill="#5e5e5e"/><path d="M1029.1 600l-18.5 6v-12zm-16.5 3.26l10.04-3.26-10.03-3.26z" stroke="#5e5e5e" stroke-width=".05" fill="#5e5e5e"/><g><use xlink:href="#G" transform="matrix(1,0,0,1,942.0602179001199,589.3333333333334) translate(0.005000000000000782 14.222222222222223)"/></g><path d="M1039.8 565.8c.84-3.2 4.22-5.8 7.53-5.8H1174c3.3 0 5.3 2.6 4.45 5.8l-18.24 68.4c-.84 3.2-4.22 5.8-7.53 5.8H1026c-3.3 0-5.3-2.6-4.45-5.8z" stroke="#5e5e5e" stroke-width="3" fill="#fff"/><g><use xlink:href="#ae" transform="matrix(1,0,0,1,1025,565) translate(16.517345679012344 39.65277777777778)"/><use xlink:href="#af" transform="matrix(1,0,0,1,1025,565) translate(114.97413580246914 39.65277777777778)"/><use xlink:href="#ag" transform="matrix(1,0,0,1,1025,565) translate(127.31981481481482 39.65277777777778)"/></g><path d="M1537.55 599.92l2.53 2.53.92 3.42v2346.76l-.92 3.42-2.53 2.53-3.42.92H813.05l-2.64.7-1.77 1.8-.7 2.63V2980h-2v-15.63l.9-3.42 2.54-2.53 3.4-.92h721.1l2.64-.7 1.8-1.8.7-2.63V606.13l-.7-2.64-1.8-1.8-2.63-.7H1171.9v-2h362.23z" stroke="#5e5e5e" stroke-width=".05" fill="#5e5e5e"/><path d="M1171.9 601h-1.28l.53-2h.76z" fill="#5e5e5e"/><path d="M1171.94 601.02h-1.35l.53-2.04h.8zm-.77-2l-.52 1.96h1.24V599z" stroke="#5e5e5e" stroke-width=".05" fill="#5e5e5e"/><path d="M806.92 2995.26l-4.64-14.26h9.27z" fill="#5e5e5e"/><path d="M806.92 2998.5l-6.02-18.5h12.03zm-3.26-16.5l3.26 10.03 3.26-10.03z" stroke="#5e5e5e" stroke-width=".05" fill="#5e5e5e"/><defs><path fill="#333" d="M210-169c-67 3-38 105-44 169h-31v-121c0-29-5-50-35-48C34-165 62-65 56 0H25l-1-190h30c1 10-1 24 2 32 10-44 99-50 107 0 11-21 27-35 58-36 85-2 47 119 55 194h-31v-121c0-29-5-49-35-48" id="ah"/><path fill="#333" d="M100-194c62-1 85 37 85 99 1 63-27 99-86 99S16-35 15-95c0-66 28-99 85-99zM99-20c44 1 53-31 53-75 0-43-8-75-51-75s-53 32-53 75 10 74 51 75" id="ai"/><path fill="#333" d="M117-194c89-4 53 116 60 194h-32v-121c0-31-8-49-39-48C34-167 62-67 57 0H25l-1-190h30c1 10-1 24 2 32 11-22 29-35 61-36" id="aj"/><path fill="#333" d="M59-47c-2 24 18 29 38 22v24C64 9 27 4 27-40v-127H5v-23h24l9-43h21v43h35v23H59v120" id="ak"/><path fill="#333" d="M141-36C126-15 110 5 73 4 37 3 15-17 15-53c-1-64 63-63 125-63 3-35-9-54-41-54-24 1-41 7-42 31l-33-3c5-37 33-52 76-52 45 0 72 20 72 64v82c-1 20 7 32 28 27v20c-31 9-61-2-59-35zM48-53c0 20 12 33 32 33 41-3 63-29 60-74-43 2-92-5-92 41" id="al"/><path fill="#333" d="M100-194c63 0 86 42 84 106H49c0 40 14 67 53 68 26 1 43-12 49-29l28 8c-11 28-37 45-77 45C44 4 14-33 15-96c1-61 26-98 85-98zm52 81c6-60-76-77-97-28-3 7-6 17-6 28h103" id="am"/><path fill="#333" d="M87 75C49 33 22-17 22-94c0-76 28-126 65-167h31c-38 41-64 92-64 168S80 34 118 75H87" id="an"/><path fill="#333" d="M114-163C36-179 61-72 57 0H25l-1-190h30c1 12-1 29 2 39 6-27 23-49 58-41v29" id="ao"/><path fill="#333" d="M24-231v-30h32v30H24zM24 0v-190h32V0H24" id="ap"/><path fill="#333" d="M9 0v-24l116-142H16v-24h144v24L44-24h123V0H9" id="aq"/><path fill="#333" d="M68-38c1 34 0 65-14 84H32c9-13 17-26 17-46H33v-38h35" id="ar"/><g id="a"><use transform="matrix(0.06172839506172839,0,0,0.06172839506172839,0,0)" xlink:href="#ah"/><use transform="matrix(0.06172839506172839,0,0,0.06172839506172839,18.456790123456788,0)" xlink:href="#ai"/><use transform="matrix(0.06172839506172839,0,0,0.06172839506172839,30.80246913580247,0)" xlink:href="#aj"/><use transform="matrix(0.06172839506172839,0,0,0.06172839506172839,43.148148148148145,0)" xlink:href="#ak"/><use transform="matrix(0.06172839506172839,0,0,0.06172839506172839,49.32098765432099,0)" xlink:href="#al"/><use transform="matrix(0.06172839506172839,0,0,0.06172839506172839,61.666666666666664,0)" xlink:href="#aj"/><use transform="matrix(0.06172839506172839,0,0,0.06172839506172839,74.01234567901234,0)" xlink:href="#ak"/><use transform="matrix(0.06172839506172839,0,0,0.06172839506172839,80.18518518518518,0)" xlink:href="#am"/><use transform="matrix(0.06172839506172839,0,0,0.06172839506172839,92.53086419753086,0)" xlink:href="#an"/><use transform="matrix(0.06172839506172839,0,0,0.06172839506172839,99.87654320987654,0)" xlink:href="#ah"/><use transform="matrix(0.06172839506172839,0,0,0.06172839506172839,118.33333333333333,0)" xlink:href="#al"/><use transform="matrix(0.06172839506172839,0,0,0.06172839506172839,130.679012345679,0)" xlink:href="#ak"/><use transform="matrix(0.06172839506172839,0,0,0.06172839506172839,136.85185185185185,0)" xlink:href="#ao"/><use transform="matrix(0.06172839506172839,0,0,0.06172839506172839,144.19753086419752,0)" xlink:href="#ap"/><use transform="matrix(0.06172839506172839,0,0,0.06172839506172839,149.07407407407405,0)" xlink:href="#aq"/><use transform="matrix(0.06172839506172839,0,0,0.06172839506172839,160.18518518518516,0)" xlink:href="#ar"/></g><path fill="#333" d="M85-194c31 0 48 13 60 33l-1-100h32l1 261h-30c-2-10 0-23-3-31C134-8 116 4 85 4 32 4 16-35 15-94c0-66 23-100 70-100zm9 24c-40 0-46 34-46 75 0 40 6 74 45 74 42 0 51-32 51-76 0-42-9-74-50-73" id="as"/><path fill="#333" d="M24-231v-30h32v30H24zM-9 49c24 4 33-6 33-30v-209h32V24c2 40-23 58-65 49V49" id="at"/><path fill="#333" d="M84 4C-5 8 30-112 23-190h32v120c0 31 7 50 39 49 72-2 45-101 50-169h31l1 190h-30c-1-10 1-25-2-33-11 22-28 36-60 37" id="au"/><path fill="#333" d="M33-261c38 41 65 92 65 168S71 34 33 75H2C39 34 66-17 66-93S39-220 2-261h31" id="av"/><g id="b"><use transform="matrix(0.06172839506172839,0,0,0.06172839506172839,0,0)" xlink:href="#al"/><use transform="matrix(0.06172839506172839,0,0,0.06172839506172839,12.345679012345679,0)" xlink:href="#as"/><use transform="matrix(0.06172839506172839,0,0,0.06172839506172839,24.691358024691358,0)" xlink:href="#at"/><use transform="matrix(0.06172839506172839,0,0,0.06172839506172839,29.5679012345679,0)" xlink:href="#au"/><use transform="matrix(0.06172839506172839,0,0,0.06172839506172839,41.913580246913575,0)" xlink:href="#aj"/><use transform="matrix(0.06172839506172839,0,0,0.06172839506172839,54.25925925925925,0)" xlink:href="#ak"/><use transform="matrix(0.06172839506172839,0,0,0.06172839506172839,60.432098765432094,0)" xlink:href="#al"/><use transform="matrix(0.06172839506172839,0,0,0.06172839506172839,72.77777777777777,0)" xlink:href="#av"/></g><g id="c"><use transform="matrix(0.06172839506172839,0,0,0.06172839506172839,0,0)" xlink:href="#ap"/><use transform="matrix(0.06172839506172839,0,0,0.06172839506172839,4.876543209876543,0)" xlink:href="#aj"/><use transform="matrix(0.06172839506172839,0,0,0.06172839506172839,17.22222222222222,0)" xlink:href="#ak"/></g><use transform="matrix(0.06172839506172839,0,0,0.06172839506172839,0,0)" xlink:href="#aj" id="d"/><path fill="#333" d="M18-150v-26h174v26H18zm0 90v-26h174v26H18" id="aw"/><use transform="matrix(0.06172839506172839,0,0,0.06172839506172839,0,0)" xlink:href="#aw" id="e"/><path fill="#333" d="M33 0v-38h34V0H33" id="ax"/><path fill="#333" d="M24 0v-261h32V0H24" id="ay"/><path fill="#333" d="M177-190C167-65 218 103 67 71c-23-6-38-20-44-43l32-5c15 47 100 32 89-28v-30C133-14 115 1 83 1 29 1 15-40 15-95c0-56 16-97 71-98 29-1 48 16 59 35 1-10 0-23 2-32h30zM94-22c36 0 50-32 50-73 0-42-14-75-50-75-39 0-46 34-46 75s6 73 46 73" id="az"/><path fill="#333" d="M106-169C34-169 62-67 57 0H25v-261h32l-1 103c12-21 28-36 61-36 89 0 53 116 60 194h-32v-121c2-32-8-49-39-48" id="aA"/><g id="f"><use transform="matrix(0.06172839506172839,0,0,0.06172839506172839,0,0)" xlink:href="#ah"/><use transform="matrix(0.06172839506172839,0,0,0.06172839506172839,18.456790123456788,0)" xlink:href="#al"/><use transform="matrix(0.06172839506172839,0,0,0.06172839506172839,30.80246913580247,0)" xlink:href="#ak"/><use transform="matrix(0.06172839506172839,0,0,0.06172839506172839,36.97530864197531,0)" xlink:href="#ao"/><use transform="matrix(0.06172839506172839,0,0,0.06172839506172839,44.32098765432099,0)" xlink:href="#ap"/><use transform="matrix(0.06172839506172839,0,0,0.06172839506172839,49.19753086419753,0)" xlink:href="#aq"/><use transform="matrix(0.06172839506172839,0,0,0.06172839506172839,60.308641975308646,0)" xlink:href="#ax"/><use transform="matrix(0.06172839506172839,0,0,0.06172839506172839,66.48148148148148,0)" xlink:href="#ay"/><use transform="matrix(0.06172839506172839,0,0,0.06172839506172839,71.35802469135803,0)" xlink:href="#am"/><use transform="matrix(0.06172839506172839,0,0,0.06172839506172839,83.70370370370371,0)" xlink:href="#aj"/><use transform="matrix(0.06172839506172839,0,0,0.06172839506172839,96.0493827160494,0)" xlink:href="#az"/><use transform="matrix(0.06172839506172839,0,0,0.06172839506172839,108.39506172839508,0)" xlink:href="#ak"/><use transform="matrix(0.06172839506172839,0,0,0.06172839506172839,114.56790123456791,0)" xlink:href="#aA"/><use transform="matrix(0.06172839506172839,0,0,0.06172839506172839,126.9135802469136,0)" xlink:href="#an"/><use transform="matrix(0.06172839506172839,0,0,0.06172839506172839,134.25925925925927,0)" xlink:href="#av"/></g><g id="g"><use transform="matrix(0.06172839506172839,0,0,0.06172839506172839,0,0)" xlink:href="#ap"/><use transform="matrix(0.06172839506172839,0,0,0.06172839506172839,4.876543209876543,0)" xlink:href="#aj"/><use transform="matrix(0.06172839506172839,0,0,0.06172839506172839,17.22222222222222,0)" xlink:href="#ak"/></g><path fill="#333" d="M108 0H70L1-190h34L89-25l56-165h34" id="aB"/><path fill="#333" d="M-5 72V49h209v23H-5" id="aC"/><path fill="#333" d="M26 75v-336h71v23H56V52h41v23H26" id="aD"/><path fill="#333" d="M3 75V52h41v-290H3v-23h71V75H3" id="aE"/><g id="h"><use transform="matrix(0.06172839506172839,0,0,0.06172839506172839,0,0)" xlink:href="#aj"/><use transform="matrix(0.06172839506172839,0,0,0.06172839506172839,12.345679012345679,0)" xlink:href="#au"/><use transform="matrix(0.06172839506172839,0,0,0.06172839506172839,24.691358024691358,0)" xlink:href="#am"/><use transform="matrix(0.06172839506172839,0,0,0.06172839506172839,37.03703703703704,0)" xlink:href="#aB"/><use transform="matrix(0.06172839506172839,0,0,0.06172839506172839,48.14814814814815,0)" xlink:href="#al"/><use transform="matrix(0.06172839506172839,0,0,0.06172839506172839,60.49382716049383,0)" xlink:href="#aC"/><use transform="matrix(0.06172839506172839,0,0,0.06172839506172839,72.8395061728395,0)" xlink:href="#ah"/><use transform="matrix(0.06172839506172839,0,0,0.06172839506172839,91.29629629629629,0)" xlink:href="#aD"/><use transform="matrix(0.06172839506172839,0,0,0.06172839506172839,97.46913580246913,0)" xlink:href="#aj"/><use transform="matrix(0.06172839506172839,0,0,0.06172839506172839,109.81481481481481,0)" xlink:href="#aE"/><use transform="matrix(0.06172839506172839,0,0,0.06172839506172839,115.98765432098764,0)" xlink:href="#aD"/><use transform="matrix(0.06172839506172839,0,0,0.06172839506172839,122.16049382716048,0)" xlink:href="#aj"/><use transform="matrix(0.06172839506172839,0,0,0.06172839506172839,134.50617283950615,0)" xlink:href="#aE"/></g><path fill="#333" d="M101-234c-31-9-42 10-38 44h38v23H63V0H32v-167H5v-23h27c-7-52 17-82 69-68v24" id="aF"/><g id="i"><use transform="matrix(0.06172839506172839,0,0,0.06172839506172839,0,0)" xlink:href="#aF"/><use transform="matrix(0.06172839506172839,0,0,0.06172839506172839,6.172839506172839,0)" xlink:href="#ay"/><use transform="matrix(0.06172839506172839,0,0,0.06172839506172839,11.049382716049383,0)" xlink:href="#ai"/><use transform="matrix(0.06172839506172839,0,0,0.06172839506172839,23.395061728395063,0)" xlink:href="#al"/><use transform="matrix(0.06172839506172839,0,0,0.06172839506172839,35.74074074074074,0)" xlink:href="#ak"/></g><g id="j"><use transform="matrix(0.06172839506172839,0,0,0.06172839506172839,0,0)" xlink:href="#aj"/><use transform="matrix(0.06172839506172839,0,0,0.06172839506172839,12.345679012345679,0)" xlink:href="#au"/><use transform="matrix(0.06172839506172839,0,0,0.06172839506172839,24.691358024691358,0)" xlink:href="#am"/><use transform="matrix(0.06172839506172839,0,0,0.06172839506172839,37.03703703703704,0)" xlink:href="#aB"/><use transform="matrix(0.06172839506172839,0,0,0.06172839506172839,48.14814814814815,0)" xlink:href="#al"/><use transform="matrix(0.06172839506172839,0,0,0.06172839506172839,60.49382716049383,0)" xlink:href="#aC"/><use transform="matrix(0.06172839506172839,0,0,0.06172839506172839,72.8395061728395,0)" xlink:href="#al"/><use transform="matrix(0.06172839506172839,0,0,0.06172839506172839,85.18518518518519,0)" xlink:href="#as"/><use transform="matrix(0.06172839506172839,0,0,0.06172839506172839,97.53086419753087,0)" xlink:href="#at"/><use transform="matrix(0.06172839506172839,0,0,0.06172839506172839,102.40740740740742,0)" xlink:href="#aD"/><use transform="matrix(0.06172839506172839,0,0,0.06172839506172839,108.58024691358025,0)" xlink:href="#aj"/><use transform="matrix(0.06172839506172839,0,0,0.06172839506172839,120.92592592592594,0)" xlink:href="#aE"/><use transform="matrix(0.06172839506172839,0,0,0.06172839506172839,127.09876543209879,0)" xlink:href="#aD"/><use transform="matrix(0.06172839506172839,0,0,0.06172839506172839,133.27160493827162,0)" xlink:href="#aj"/><use transform="matrix(0.06172839506172839,0,0,0.06172839506172839,145.6172839506173,0)" xlink:href="#aE"/></g><path fill="#333" d="M115-194c55 1 70 41 70 98S169 2 115 4C84 4 66-9 55-30l1 105H24l-1-265h31l2 30c10-21 28-34 59-34zm-8 174c40 0 45-34 45-75s-6-73-45-74c-42 0-51 32-51 76 0 43 10 73 51 73" id="aG"/><g id="k"><use transform="matrix(0.06172839506172839,0,0,0.06172839506172839,0,0)" xlink:href="#aG"/><use transform="matrix(0.06172839506172839,0,0,0.06172839506172839,12.345679012345679,0)" xlink:href="#ap"/><use transform="matrix(0.06172839506172839,0,0,0.06172839506172839,17.22222222222222,0)" xlink:href="#aB"/><use transform="matrix(0.06172839506172839,0,0,0.06172839506172839,28.333333333333332,0)" xlink:href="#ai"/><use transform="matrix(0.06172839506172839,0,0,0.06172839506172839,40.67901234567901,0)" xlink:href="#ak"/><use transform="matrix(0.06172839506172839,0,0,0.06172839506172839,46.851851851851855,0)" xlink:href="#am"/><use transform="matrix(0.06172839506172839,0,0,0.06172839506172839,59.19753086419753,0)" xlink:href="#aC"/><use transform="matrix(0.06172839506172839,0,0,0.06172839506172839,71.54320987654322,0)" xlink:href="#al"/><use transform="matrix(0.06172839506172839,0,0,0.06172839506172839,83.8888888888889,0)" xlink:href="#aj"/><use transform="matrix(0.06172839506172839,0,0,0.06172839506172839,96.23456790123458,0)" xlink:href="#ak"/></g><path fill="#333" d="M27 0v-27h64v-190l-56 39v-29l58-41h29v221h61V0H27" id="aH"/><use transform="matrix(0.06172839506172839,0,0,0.06172839506172839,0,0)" xlink:href="#aH" id="l"/><g id="m"><use transform="matrix(0.06172839506172839,0,0,0.06172839506172839,0,0)" xlink:href="#as"/><use transform="matrix(0.06172839506172839,0,0,0.06172839506172839,12.345679012345679,0)" xlink:href="#am"/><use transform="matrix(0.06172839506172839,0,0,0.06172839506172839,24.691358024691358,0)" xlink:href="#ak"/></g><path fill="#333" d="M143 0L79-87 56-68V0H24v-261h32v163l83-92h37l-77 82L181 0h-38" id="aI"/><use transform="matrix(0.06172839506172839,0,0,0.06172839506172839,0,0)" xlink:href="#aI" id="n"/><path fill="#333" d="M101-251c68 0 85 55 85 127S166 4 100 4C33 4 14-52 14-124c0-73 17-127 87-127zm-1 229c47 0 54-49 54-102s-4-102-53-102c-51 0-55 48-55 102 0 53 5 102 54 102" id="aJ"/><use transform="matrix(0.06172839506172839,0,0,0.06172839506172839,0,0)" xlink:href="#aJ" id="o"/><use transform="matrix(0.06172839506172839,0,0,0.06172839506172839,0,0)" xlink:href="#ap" id="p"/><use transform="matrix(0.06172839506172839,0,0,0.06172839506172839,0,0)" xlink:href="#at" id="q"/><use transform="matrix(0.06172839506172839,0,0,0.06172839506172839,0,0)" xlink:href="#aJ" id="r"/><use transform="matrix(0.06172839506172839,0,0,0.06172839506172839,0,0)" xlink:href="#aI" id="s"/><path fill="#333" d="M18-100v-36l175-74v27L42-118l151 64v27" id="aK"/><use transform="matrix(0.06172839506172839,0,0,0.06172839506172839,0,0)" xlink:href="#aK" id="t"/><use transform="matrix(0.06172839506172839,0,0,0.06172839506172839,0,0)" xlink:href="#aj" id="u"/><path fill="#333" d="M169-182c-1-43-94-46-97-3 18 66 151 10 154 114 3 95-165 93-204 36-6-8-10-19-12-30l50-8c3 46 112 56 116 5-17-69-150-10-154-114-4-87 153-88 188-35 5 8 8 18 10 28" id="aL"/><path fill="#333" d="M25 0v-190h50V0H25zm-5-208v-5l45-51h45v8l-60 48H20" id="aM"/><g id="v"><use transform="matrix(0.04938271604938272,0,0,0.04938271604938272,0,0)" xlink:href="#aL"/><use transform="matrix(0.04938271604938272,0,0,0.04938271604938272,11.851851851851853,0)" xlink:href="#aM"/></g><g id="w"><use transform="matrix(0.06172839506172839,0,0,0.06172839506172839,0,0)" xlink:href="#ah"/><use transform="matrix(0.06172839506172839,0,0,0.06172839506172839,18.456790123456788,0)" xlink:href="#al"/><use transform="matrix(0.06172839506172839,0,0,0.06172839506172839,30.80246913580247,0)" xlink:href="#ak"/><use transform="matrix(0.06172839506172839,0,0,0.06172839506172839,36.97530864197531,0)" xlink:href="#ao"/><use transform="matrix(0.06172839506172839,0,0,0.06172839506172839,44.32098765432099,0)" xlink:href="#ap"/><use transform="matrix(0.06172839506172839,0,0,0.06172839506172839,49.19753086419753,0)" xlink:href="#aq"/><use transform="matrix(0.06172839506172839,0,0,0.06172839506172839,60.308641975308646,0)" xlink:href="#aD"/><use transform="matrix(0.06172839506172839,0,0,0.06172839506172839,66.48148148148148,0)" xlink:href="#aI"/><use transform="matrix(0.06172839506172839,0,0,0.06172839506172839,77.5925925925926,0)" xlink:href="#aE"/><use transform="matrix(0.06172839506172839,0,0,0.06172839506172839,83.76543209876543,0)" xlink:href="#aD"/><use transform="matrix(0.06172839506172839,0,0,0.06172839506172839,89.93827160493827,0)" xlink:href="#aI"/><use transform="matrix(0.06172839506172839,0,0,0.06172839506172839,101.04938271604938,0)" xlink:href="#aE"/></g><path fill="#333" d="M63-70H37l-4-178h34zM33 0v-35h34V0H33" id="aN"/><g id="x"><use transform="matrix(0.06172839506172839,0,0,0.06172839506172839,0,0)" xlink:href="#aN"/><use transform="matrix(0.06172839506172839,0,0,0.06172839506172839,6.172839506172839,0)" xlink:href="#aw"/></g><use transform="matrix(0.06172839506172839,0,0,0.06172839506172839,0,0)" xlink:href="#ap" id="y"/><use transform="matrix(0.06172839506172839,0,0,0.06172839506172839,0,0)" xlink:href="#at" id="z"/><g id="A"><use transform="matrix(0.06172839506172839,0,0,0.06172839506172839,0,0)" xlink:href="#aw"/><use transform="matrix(0.06172839506172839,0,0,0.06172839506172839,12.962962962962962,0)" xlink:href="#aw"/></g><use transform="matrix(0.06172839506172839,0,0,0.06172839506172839,0,0)" xlink:href="#aI" id="B"/><g id="C"><use transform="matrix(0.06172839506172839,0,0,0.06172839506172839,0,0)" xlink:href="#aj"/><use transform="matrix(0.06172839506172839,0,0,0.06172839506172839,12.345679012345679,0)" xlink:href="#au"/><use transform="matrix(0.06172839506172839,0,0,0.06172839506172839,24.691358024691358,0)" xlink:href="#am"/><use transform="matrix(0.06172839506172839,0,0,0.06172839506172839,37.03703703703704,0)" xlink:href="#aB"/><use transform="matrix(0.06172839506172839,0,0,0.06172839506172839,48.14814814814815,0)" xlink:href="#al"/><use transform="matrix(0.06172839506172839,0,0,0.06172839506172839,60.49382716049383,0)" xlink:href="#aC"/><use transform="matrix(0.06172839506172839,0,0,0.06172839506172839,72.8395061728395,0)" xlink:href="#ah"/><use transform="matrix(0.06172839506172839,0,0,0.06172839506172839,91.29629629629629,0)" xlink:href="#aD"/><use transform="matrix(0.06172839506172839,0,0,0.06172839506172839,97.46913580246913,0)" xlink:href="#ap"/><use transform="matrix(0.06172839506172839,0,0,0.06172839506172839,102.34567901234567,0)" xlink:href="#aE"/><use transform="matrix(0.06172839506172839,0,0,0.06172839506172839,108.5185185185185,0)" xlink:href="#aD"/><use transform="matrix(0.06172839506172839,0,0,0.06172839506172839,114.69135802469134,0)" xlink:href="#at"/><use transform="matrix(0.06172839506172839,0,0,0.06172839506172839,119.56790123456788,0)" xlink:href="#aE"/></g><g id="D"><use transform="matrix(0.06172839506172839,0,0,0.06172839506172839,0,0)" xlink:href="#ah"/><use transform="matrix(0.06172839506172839,0,0,0.06172839506172839,18.456790123456788,0)" xlink:href="#al"/><use transform="matrix(0.06172839506172839,0,0,0.06172839506172839,30.80246913580247,0)" xlink:href="#ak"/><use transform="matrix(0.06172839506172839,0,0,0.06172839506172839,36.97530864197531,0)" xlink:href="#ao"/><use transform="matrix(0.06172839506172839,0,0,0.06172839506172839,44.32098765432099,0)" xlink:href="#ap"/><use transform="matrix(0.06172839506172839,0,0,0.06172839506172839,49.19753086419753,0)" xlink:href="#aq"/><use transform="matrix(0.06172839506172839,0,0,0.06172839506172839,60.308641975308646,0)" xlink:href="#aD"/><use transform="matrix(0.06172839506172839,0,0,0.06172839506172839,66.48148148148148,0)" xlink:href="#ap"/><use transform="matrix(0.06172839506172839,0,0,0.06172839506172839,71.35802469135803,0)" xlink:href="#aE"/><use transform="matrix(0.06172839506172839,0,0,0.06172839506172839,77.53086419753086,0)" xlink:href="#aD"/><use transform="matrix(0.06172839506172839,0,0,0.06172839506172839,83.7037037037037,0)" xlink:href="#at"/><use transform="matrix(0.06172839506172839,0,0,0.06172839506172839,88.58024691358024,0)" xlink:href="#aE"/></g><g id="E"><use transform="matrix(0.06172839506172839,0,0,0.06172839506172839,0,0)" xlink:href="#aj"/><use transform="matrix(0.06172839506172839,0,0,0.06172839506172839,12.345679012345679,0)" xlink:href="#au"/><use transform="matrix(0.06172839506172839,0,0,0.06172839506172839,24.691358024691358,0)" xlink:href="#am"/><use transform="matrix(0.06172839506172839,0,0,0.06172839506172839,37.03703703703704,0)" xlink:href="#aB"/><use transform="matrix(0.06172839506172839,0,0,0.06172839506172839,48.14814814814815,0)" xlink:href="#al"/><use transform="matrix(0.06172839506172839,0,0,0.06172839506172839,60.49382716049383,0)" xlink:href="#aC"/><use transform="matrix(0.06172839506172839,0,0,0.06172839506172839,72.8395061728395,0)" xlink:href="#al"/><use transform="matrix(0.06172839506172839,0,0,0.06172839506172839,85.18518518518519,0)" xlink:href="#as"/><use transform="matrix(0.06172839506172839,0,0,0.06172839506172839,97.53086419753087,0)" xlink:href="#at"/><use transform="matrix(0.06172839506172839,0,0,0.06172839506172839,102.40740740740742,0)" xlink:href="#aD"/><use transform="matrix(0.06172839506172839,0,0,0.06172839506172839,108.58024691358025,0)" xlink:href="#ap"/><use transform="matrix(0.06172839506172839,0,0,0.06172839506172839,113.4567901234568,0)" xlink:href="#aE"/><use transform="matrix(0.06172839506172839,0,0,0.06172839506172839,119.62962962962963,0)" xlink:href="#aD"/><use transform="matrix(0.06172839506172839,0,0,0.06172839506172839,125.80246913580247,0)" xlink:href="#at"/><use transform="matrix(0.06172839506172839,0,0,0.06172839506172839,130.679012345679,0)" xlink:href="#aE"/></g><g id="F"><use transform="matrix(0.06172839506172839,0,0,0.06172839506172839,0,0)" xlink:href="#al"/><use transform="matrix(0.06172839506172839,0,0,0.06172839506172839,12.345679012345679,0)" xlink:href="#as"/><use transform="matrix(0.06172839506172839,0,0,0.06172839506172839,24.691358024691358,0)" xlink:href="#at"/><use transform="matrix(0.06172839506172839,0,0,0.06172839506172839,29.5679012345679,0)" xlink:href="#au"/><use transform="matrix(0.06172839506172839,0,0,0.06172839506172839,41.913580246913575,0)" xlink:href="#aj"/><use transform="matrix(0.06172839506172839,0,0,0.06172839506172839,54.25925925925925,0)" xlink:href="#ak"/><use transform="matrix(0.06172839506172839,0,0,0.06172839506172839,60.432098765432094,0)" xlink:href="#al"/><use transform="matrix(0.06172839506172839,0,0,0.06172839506172839,72.77777777777777,0)" xlink:href="#aD"/><use transform="matrix(0.06172839506172839,0,0,0.06172839506172839,78.9506172839506,0)" xlink:href="#ap"/><use transform="matrix(0.06172839506172839,0,0,0.06172839506172839,83.82716049382715,0)" xlink:href="#aE"/><use transform="matrix(0.06172839506172839,0,0,0.06172839506172839,89.99999999999999,0)" xlink:href="#aD"/><use transform="matrix(0.06172839506172839,0,0,0.06172839506172839,96.17283950617282,0)" xlink:href="#at"/><use transform="matrix(0.06172839506172839,0,0,0.06172839506172839,101.04938271604937,0)" xlink:href="#aE"/></g><path fill="#333" d="M175 0L67-191c6 58 2 128 3 191H24v-248h59L193-55c-6-58-2-129-3-193h46V0h-61" id="aO"/><path fill="#333" d="M110-194c64 0 96 36 96 99 0 64-35 99-97 99-61 0-95-36-95-99 0-62 34-99 96-99zm-1 164c35 0 45-28 45-65 0-40-10-65-43-65-34 0-45 26-45 65 0 36 10 65 43 65" id="aP"/><g id="G"><use transform="matrix(0.04938271604938272,0,0,0.04938271604938272,0,0)" xlink:href="#aO"/><use transform="matrix(0.04938271604938272,0,0,0.04938271604938272,12.790123456790125,0)" xlink:href="#aP"/></g><use transform="matrix(0.06172839506172839,0,0,0.06172839506172839,0,0)" xlink:href="#aw" id="H"/><path fill="#333" d="M80-196l47-18 7 23-49 13 32 44-20 13-27-46-27 45-21-12 33-44-49-13 8-23 47 19-2-53h23" id="aQ"/><path fill="#333" d="M16-82v-28h88v28H16" id="aR"/><path fill="#333" d="M0 4l72-265h28L28 4H0" id="aS"/><g id="I"><use transform="matrix(0.06172839506172839,0,0,0.06172839506172839,0,0)" xlink:href="#an"/><use transform="matrix(0.06172839506172839,0,0,0.06172839506172839,7.345679012345679,0)" xlink:href="#ah"/><use transform="matrix(0.06172839506172839,0,0,0.06172839506172839,25.80246913580247,0)" xlink:href="#al"/><use transform="matrix(0.06172839506172839,0,0,0.06172839506172839,38.148148148148145,0)" xlink:href="#ak"/><use transform="matrix(0.06172839506172839,0,0,0.06172839506172839,44.32098765432099,0)" xlink:href="#ao"/><use transform="matrix(0.06172839506172839,0,0,0.06172839506172839,51.666666666666664,0)" xlink:href="#ap"/><use transform="matrix(0.06172839506172839,0,0,0.06172839506172839,56.54320987654321,0)" xlink:href="#aq"/><use transform="matrix(0.06172839506172839,0,0,0.06172839506172839,67.65432098765432,0)" xlink:href="#aD"/><use transform="matrix(0.06172839506172839,0,0,0.06172839506172839,73.82716049382715,0)" xlink:href="#aI"/><use transform="matrix(0.06172839506172839,0,0,0.06172839506172839,84.93827160493827,0)" xlink:href="#aE"/><use transform="matrix(0.06172839506172839,0,0,0.06172839506172839,91.1111111111111,0)" xlink:href="#aD"/><use transform="matrix(0.06172839506172839,0,0,0.06172839506172839,97.28395061728394,0)" xlink:href="#aI"/><use transform="matrix(0.06172839506172839,0,0,0.06172839506172839,108.39506172839505,0)" xlink:href="#aE"/><use transform="matrix(0.06172839506172839,0,0,0.06172839506172839,114.56790123456788,0)" xlink:href="#aQ"/><use transform="matrix(0.06172839506172839,0,0,0.06172839506172839,123.20987654320986,0)" xlink:href="#ah"/><use transform="matrix(0.06172839506172839,0,0,0.06172839506172839,141.66666666666666,0)" xlink:href="#al"/><use transform="matrix(0.06172839506172839,0,0,0.06172839506172839,154.01234567901233,0)" xlink:href="#ak"/><use transform="matrix(0.06172839506172839,0,0,0.06172839506172839,160.18518518518516,0)" xlink:href="#ao"/><use transform="matrix(0.06172839506172839,0,0,0.06172839506172839,167.53086419753083,0)" xlink:href="#ap"/><use transform="matrix(0.06172839506172839,0,0,0.06172839506172839,172.40740740740736,0)" xlink:href="#aq"/><use transform="matrix(0.06172839506172839,0,0,0.06172839506172839,183.51851851851848,0)" xlink:href="#aD"/><use transform="matrix(0.06172839506172839,0,0,0.06172839506172839,189.6913580246913,0)" xlink:href="#ap"/><use transform="matrix(0.06172839506172839,0,0,0.06172839506172839,194.56790123456784,0)" xlink:href="#aE"/><use transform="matrix(0.06172839506172839,0,0,0.06172839506172839,200.74074074074068,0)" xlink:href="#aD"/><use transform="matrix(0.06172839506172839,0,0,0.06172839506172839,206.9135802469135,0)" xlink:href="#at"/><use transform="matrix(0.06172839506172839,0,0,0.06172839506172839,211.79012345679004,0)" xlink:href="#aE"/><use transform="matrix(0.06172839506172839,0,0,0.06172839506172839,217.96296296296288,0)" xlink:href="#aR"/><use transform="matrix(0.06172839506172839,0,0,0.06172839506172839,225.30864197530855,0)" xlink:href="#ah"/><use transform="matrix(0.06172839506172839,0,0,0.06172839506172839,243.76543209876533,0)" xlink:href="#al"/><use transform="matrix(0.06172839506172839,0,0,0.06172839506172839,256.11111111111103,0)" xlink:href="#ak"/><use transform="matrix(0.06172839506172839,0,0,0.06172839506172839,262.2839506172839,0)" xlink:href="#ao"/><use transform="matrix(0.06172839506172839,0,0,0.06172839506172839,269.62962962962956,0)" xlink:href="#ap"/><use transform="matrix(0.06172839506172839,0,0,0.06172839506172839,274.5061728395061,0)" xlink:href="#aq"/><use transform="matrix(0.06172839506172839,0,0,0.06172839506172839,285.6172839506172,0)" xlink:href="#aD"/><use transform="matrix(0.06172839506172839,0,0,0.06172839506172839,291.79012345679007,0)" xlink:href="#ap"/><use transform="matrix(0.06172839506172839,0,0,0.06172839506172839,296.66666666666663,0)" xlink:href="#aE"/><use transform="matrix(0.06172839506172839,0,0,0.06172839506172839,302.8395061728395,0)" xlink:href="#aD"/><use transform="matrix(0.06172839506172839,0,0,0.06172839506172839,309.01234567901236,0)" xlink:href="#aI"/><use transform="matrix(0.06172839506172839,0,0,0.06172839506172839,320.12345679012344,0)" xlink:href="#aE"/><use transform="matrix(0.06172839506172839,0,0,0.06172839506172839,326.2962962962963,0)" xlink:href="#aQ"/><use transform="matrix(0.06172839506172839,0,0,0.06172839506172839,334.9382716049383,0)" xlink:href="#ah"/><use transform="matrix(0.06172839506172839,0,0,0.06172839506172839,353.3950617283951,0)" xlink:href="#al"/><use transform="matrix(0.06172839506172839,0,0,0.06172839506172839,365.74074074074076,0)" xlink:href="#ak"/><use transform="matrix(0.06172839506172839,0,0,0.06172839506172839,371.9135802469136,0)" xlink:href="#ao"/><use transform="matrix(0.06172839506172839,0,0,0.06172839506172839,379.2592592592593,0)" xlink:href="#ap"/><use transform="matrix(0.06172839506172839,0,0,0.06172839506172839,384.13580246913585,0)" xlink:href="#aq"/><use transform="matrix(0.06172839506172839,0,0,0.06172839506172839,395.24691358024694,0)" xlink:href="#aD"/><use transform="matrix(0.06172839506172839,0,0,0.06172839506172839,401.4197530864198,0)" xlink:href="#aI"/><use transform="matrix(0.06172839506172839,0,0,0.06172839506172839,412.5308641975309,0)" xlink:href="#aE"/><use transform="matrix(0.06172839506172839,0,0,0.06172839506172839,418.70370370370375,0)" xlink:href="#aD"/><use transform="matrix(0.06172839506172839,0,0,0.06172839506172839,424.8765432098766,0)" xlink:href="#at"/><use transform="matrix(0.06172839506172839,0,0,0.06172839506172839,429.7530864197532,0)" xlink:href="#aE"/><use transform="matrix(0.06172839506172839,0,0,0.06172839506172839,435.92592592592604,0)" xlink:href="#av"/><use transform="matrix(0.06172839506172839,0,0,0.06172839506172839,443.2716049382717,0)" xlink:href="#aS"/><use transform="matrix(0.06172839506172839,0,0,0.06172839506172839,449.44444444444457,0)" xlink:href="#aG"/><use transform="matrix(0.06172839506172839,0,0,0.06172839506172839,461.79012345679024,0)" xlink:href="#ap"/><use transform="matrix(0.06172839506172839,0,0,0.06172839506172839,466.6666666666668,0)" xlink:href="#aB"/><use transform="matrix(0.06172839506172839,0,0,0.06172839506172839,477.7777777777779,0)" xlink:href="#ai"/><use transform="matrix(0.06172839506172839,0,0,0.06172839506172839,490.12345679012356,0)" xlink:href="#ak"/><use transform="matrix(0.06172839506172839,0,0,0.06172839506172839,496.2962962962964,0)" xlink:href="#am"/><use transform="matrix(0.06172839506172839,0,0,0.06172839506172839,508.64197530864203,0)" xlink:href="#aC"/><use transform="matrix(0.06172839506172839,0,0,0.06172839506172839,520.9876543209878,0)" xlink:href="#al"/><use transform="matrix(0.06172839506172839,0,0,0.06172839506172839,533.3333333333335,0)" xlink:href="#aj"/><use transform="matrix(0.06172839506172839,0,0,0.06172839506172839,545.6790123456792,0)" xlink:href="#ak"/></g><g id="J"><use transform="matrix(0.06172839506172839,0,0,0.06172839506172839,0,0)" xlink:href="#an"/><use transform="matrix(0.06172839506172839,0,0,0.06172839506172839,7.345679012345679,0)" xlink:href="#ah"/><use transform="matrix(0.06172839506172839,0,0,0.06172839506172839,25.80246913580247,0)" xlink:href="#al"/><use transform="matrix(0.06172839506172839,0,0,0.06172839506172839,38.148148148148145,0)" xlink:href="#ak"/><use transform="matrix(0.06172839506172839,0,0,0.06172839506172839,44.32098765432099,0)" xlink:href="#ao"/><use transform="matrix(0.06172839506172839,0,0,0.06172839506172839,51.666666666666664,0)" xlink:href="#ap"/><use transform="matrix(0.06172839506172839,0,0,0.06172839506172839,56.54320987654321,0)" xlink:href="#aq"/><use transform="matrix(0.06172839506172839,0,0,0.06172839506172839,67.65432098765432,0)" xlink:href="#aD"/><use transform="matrix(0.06172839506172839,0,0,0.06172839506172839,73.82716049382715,0)" xlink:href="#aI"/><use transform="matrix(0.06172839506172839,0,0,0.06172839506172839,84.93827160493827,0)" xlink:href="#aE"/><use transform="matrix(0.06172839506172839,0,0,0.06172839506172839,91.1111111111111,0)" xlink:href="#aD"/><use transform="matrix(0.06172839506172839,0,0,0.06172839506172839,97.28395061728394,0)" xlink:href="#aI"/><use transform="matrix(0.06172839506172839,0,0,0.06172839506172839,108.39506172839505,0)" xlink:href="#aE"/><use transform="matrix(0.06172839506172839,0,0,0.06172839506172839,114.56790123456788,0)" xlink:href="#aQ"/><use transform="matrix(0.06172839506172839,0,0,0.06172839506172839,123.20987654320986,0)" xlink:href="#al"/><use transform="matrix(0.06172839506172839,0,0,0.06172839506172839,135.55555555555554,0)" xlink:href="#as"/><use transform="matrix(0.06172839506172839,0,0,0.06172839506172839,147.9012345679012,0)" xlink:href="#at"/><use transform="matrix(0.06172839506172839,0,0,0.06172839506172839,152.77777777777774,0)" xlink:href="#au"/><use transform="matrix(0.06172839506172839,0,0,0.06172839506172839,165.1234567901234,0)" xlink:href="#aj"/><use transform="matrix(0.06172839506172839,0,0,0.06172839506172839,177.46913580246908,0)" xlink:href="#ak"/><use transform="matrix(0.06172839506172839,0,0,0.06172839506172839,183.64197530864192,0)" xlink:href="#al"/><use transform="matrix(0.06172839506172839,0,0,0.06172839506172839,195.9876543209876,0)" xlink:href="#aD"/><use transform="matrix(0.06172839506172839,0,0,0.06172839506172839,202.16049382716042,0)" xlink:href="#ap"/><use transform="matrix(0.06172839506172839,0,0,0.06172839506172839,207.03703703703695,0)" xlink:href="#aE"/><use transform="matrix(0.06172839506172839,0,0,0.06172839506172839,213.2098765432098,0)" xlink:href="#aD"/><use transform="matrix(0.06172839506172839,0,0,0.06172839506172839,219.38271604938262,0)" xlink:href="#at"/><use transform="matrix(0.06172839506172839,0,0,0.06172839506172839,224.25925925925915,0)" xlink:href="#aE"/><use transform="matrix(0.06172839506172839,0,0,0.06172839506172839,230.432098765432,0)" xlink:href="#aR"/><use transform="matrix(0.06172839506172839,0,0,0.06172839506172839,237.77777777777766,0)" xlink:href="#ah"/><use transform="matrix(0.06172839506172839,0,0,0.06172839506172839,256.23456790123447,0)" xlink:href="#al"/><use transform="matrix(0.06172839506172839,0,0,0.06172839506172839,268.58024691358014,0)" xlink:href="#ak"/><use transform="matrix(0.06172839506172839,0,0,0.06172839506172839,274.753086419753,0)" xlink:href="#ao"/><use transform="matrix(0.06172839506172839,0,0,0.06172839506172839,282.0987654320987,0)" xlink:href="#ap"/><use transform="matrix(0.06172839506172839,0,0,0.06172839506172839,286.97530864197523,0)" xlink:href="#aq"/><use transform="matrix(0.06172839506172839,0,0,0.06172839506172839,298.0864197530863,0)" xlink:href="#aD"/><use transform="matrix(0.06172839506172839,0,0,0.06172839506172839,304.2592592592592,0)" xlink:href="#ap"/><use transform="matrix(0.06172839506172839,0,0,0.06172839506172839,309.13580246913574,0)" xlink:href="#aE"/><use transform="matrix(0.06172839506172839,0,0,0.06172839506172839,315.3086419753086,0)" xlink:href="#aD"/><use transform="matrix(0.06172839506172839,0,0,0.06172839506172839,321.48148148148147,0)" xlink:href="#aI"/><use transform="matrix(0.06172839506172839,0,0,0.06172839506172839,332.59259259259255,0)" xlink:href="#aE"/><use transform="matrix(0.06172839506172839,0,0,0.06172839506172839,338.7654320987654,0)" xlink:href="#aQ"/><use transform="matrix(0.06172839506172839,0,0,0.06172839506172839,347.4074074074074,0)" xlink:href="#al"/><use transform="matrix(0.06172839506172839,0,0,0.06172839506172839,359.75308641975306,0)" xlink:href="#as"/><use transform="matrix(0.06172839506172839,0,0,0.06172839506172839,372.09876543209873,0)" xlink:href="#at"/><use transform="matrix(0.06172839506172839,0,0,0.06172839506172839,376.9753086419753,0)" xlink:href="#au"/><use transform="matrix(0.06172839506172839,0,0,0.06172839506172839,389.32098765432096,0)" xlink:href="#aj"/><use transform="matrix(0.06172839506172839,0,0,0.06172839506172839,401.66666666666663,0)" xlink:href="#ak"/><use transform="matrix(0.06172839506172839,0,0,0.06172839506172839,407.8395061728395,0)" xlink:href="#al"/><use transform="matrix(0.06172839506172839,0,0,0.06172839506172839,420.18518518518516,0)" xlink:href="#aD"/><use transform="matrix(0.06172839506172839,0,0,0.06172839506172839,426.358024691358,0)" xlink:href="#aI"/><use transform="matrix(0.06172839506172839,0,0,0.06172839506172839,437.4691358024691,0)" xlink:href="#aE"/><use transform="matrix(0.06172839506172839,0,0,0.06172839506172839,443.641975308642,0)" xlink:href="#aD"/><use transform="matrix(0.06172839506172839,0,0,0.06172839506172839,449.81481481481484,0)" xlink:href="#at"/><use transform="matrix(0.06172839506172839,0,0,0.06172839506172839,454.6913580246914,0)" xlink:href="#aE"/><use transform="matrix(0.06172839506172839,0,0,0.06172839506172839,460.86419753086426,0)" xlink:href="#av"/><use transform="matrix(0.06172839506172839,0,0,0.06172839506172839,468.20987654320993,0)" xlink:href="#aS"/><use transform="matrix(0.06172839506172839,0,0,0.06172839506172839,474.3827160493828,0)" xlink:href="#aG"/><use transform="matrix(0.06172839506172839,0,0,0.06172839506172839,486.72839506172846,0)" xlink:href="#ap"/><use transform="matrix(0.06172839506172839,0,0,0.06172839506172839,491.604938271605,0)" xlink:href="#aB"/><use transform="matrix(0.06172839506172839,0,0,0.06172839506172839,502.7160493827161,0)" xlink:href="#ai"/><use transform="matrix(0.06172839506172839,0,0,0.06172839506172839,515.0617283950618,0)" xlink:href="#ak"/><use transform="matrix(0.06172839506172839,0,0,0.06172839506172839,521.2345679012346,0)" xlink:href="#am"/><use transform="matrix(0.06172839506172839,0,0,0.06172839506172839,533.5802469135804,0)" xlink:href="#aC"/><use transform="matrix(0.06172839506172839,0,0,0.06172839506172839,545.9259259259261,0)" xlink:href="#al"/><use transform="matrix(0.06172839506172839,0,0,0.06172839506172839,558.2716049382718,0)" xlink:href="#aj"/><use transform="matrix(0.06172839506172839,0,0,0.06172839506172839,570.6172839506175,0)" xlink:href="#ak"/></g><path fill="#333" d="M118-107v75H92v-75H18v-26h74v-75h26v75h74v26h-74" id="aT"/><g id="K"><use transform="matrix(0.06172839506172839,0,0,0.06172839506172839,0,0)" xlink:href="#at"/><use transform="matrix(0.06172839506172839,0,0,0.06172839506172839,4.876543209876543,0)" xlink:href="#aT"/><use transform="matrix(0.06172839506172839,0,0,0.06172839506172839,17.839506172839506,0)" xlink:href="#aT"/></g><g id="L"><use transform="matrix(0.06172839506172839,0,0,0.06172839506172839,0,0)" xlink:href="#ap"/><use transform="matrix(0.06172839506172839,0,0,0.06172839506172839,4.876543209876543,0)" xlink:href="#aT"/><use transform="matrix(0.06172839506172839,0,0,0.06172839506172839,17.839506172839506,0)" xlink:href="#aT"/></g><g id="M"><use transform="matrix(0.06172839506172839,0,0,0.06172839506172839,0,0)" xlink:href="#ah"/><use transform="matrix(0.06172839506172839,0,0,0.06172839506172839,18.456790123456788,0)" xlink:href="#al"/><use transform="matrix(0.06172839506172839,0,0,0.06172839506172839,30.80246913580247,0)" xlink:href="#ak"/><use transform="matrix(0.06172839506172839,0,0,0.06172839506172839,36.97530864197531,0)" xlink:href="#ao"/><use transform="matrix(0.06172839506172839,0,0,0.06172839506172839,44.32098765432099,0)" xlink:href="#ap"/><use transform="matrix(0.06172839506172839,0,0,0.06172839506172839,49.19753086419753,0)" xlink:href="#aq"/></g><g id="N"><use transform="matrix(0.06172839506172839,0,0,0.06172839506172839,0,0)" xlink:href="#aj"/><use transform="matrix(0.06172839506172839,0,0,0.06172839506172839,12.345679012345679,0)" xlink:href="#au"/><use transform="matrix(0.06172839506172839,0,0,0.06172839506172839,24.691358024691358,0)" xlink:href="#am"/><use transform="matrix(0.06172839506172839,0,0,0.06172839506172839,37.03703703703704,0)" xlink:href="#aB"/><use transform="matrix(0.06172839506172839,0,0,0.06172839506172839,48.14814814814815,0)" xlink:href="#al"/><use transform="matrix(0.06172839506172839,0,0,0.06172839506172839,60.49382716049383,0)" xlink:href="#aC"/><use transform="matrix(0.06172839506172839,0,0,0.06172839506172839,72.8395061728395,0)" xlink:href="#ah"/></g><g id="O"><use transform="matrix(0.06172839506172839,0,0,0.06172839506172839,0,0)" xlink:href="#al"/><use transform="matrix(0.06172839506172839,0,0,0.06172839506172839,12.345679012345679,0)" xlink:href="#as"/><use transform="matrix(0.06172839506172839,0,0,0.06172839506172839,24.691358024691358,0)" xlink:href="#at"/><use transform="matrix(0.06172839506172839,0,0,0.06172839506172839,29.5679012345679,0)" xlink:href="#au"/><use transform="matrix(0.06172839506172839,0,0,0.06172839506172839,41.913580246913575,0)" xlink:href="#aj"/><use transform="matrix(0.06172839506172839,0,0,0.06172839506172839,54.25925925925925,0)" xlink:href="#ak"/><use transform="matrix(0.06172839506172839,0,0,0.06172839506172839,60.432098765432094,0)" xlink:href="#al"/></g><g id="P"><use transform="matrix(0.06172839506172839,0,0,0.06172839506172839,0,0)" xlink:href="#aj"/><use transform="matrix(0.06172839506172839,0,0,0.06172839506172839,12.345679012345679,0)" xlink:href="#au"/><use transform="matrix(0.06172839506172839,0,0,0.06172839506172839,24.691358024691358,0)" xlink:href="#am"/><use transform="matrix(0.06172839506172839,0,0,0.06172839506172839,37.03703703703704,0)" xlink:href="#aB"/><use transform="matrix(0.06172839506172839,0,0,0.06172839506172839,48.14814814814815,0)" xlink:href="#al"/><use transform="matrix(0.06172839506172839,0,0,0.06172839506172839,60.49382716049383,0)" xlink:href="#aC"/><use transform="matrix(0.06172839506172839,0,0,0.06172839506172839,72.8395061728395,0)" xlink:href="#al"/><use transform="matrix(0.06172839506172839,0,0,0.06172839506172839,85.18518518518519,0)" xlink:href="#as"/><use transform="matrix(0.06172839506172839,0,0,0.06172839506172839,97.53086419753087,0)" xlink:href="#at"/></g><g id="Q"><use transform="matrix(0.06172839506172839,0,0,0.06172839506172839,0,0)" xlink:href="#aG"/><use transform="matrix(0.06172839506172839,0,0,0.06172839506172839,12.345679012345679,0)" xlink:href="#ap"/><use transform="matrix(0.06172839506172839,0,0,0.06172839506172839,17.22222222222222,0)" xlink:href="#aB"/><use transform="matrix(0.06172839506172839,0,0,0.06172839506172839,28.333333333333332,0)" xlink:href="#ai"/><use transform="matrix(0.06172839506172839,0,0,0.06172839506172839,40.67901234567901,0)" xlink:href="#ak"/><use transform="matrix(0.06172839506172839,0,0,0.06172839506172839,46.851851851851855,0)" xlink:href="#am"/><use transform="matrix(0.06172839506172839,0,0,0.06172839506172839,59.19753086419753,0)" xlink:href="#aC"/><use transform="matrix(0.06172839506172839,0,0,0.06172839506172839,71.54320987654322,0)" xlink:href="#al"/><use transform="matrix(0.06172839506172839,0,0,0.06172839506172839,83.8888888888889,0)" xlink:href="#aj"/><use transform="matrix(0.06172839506172839,0,0,0.06172839506172839,96.23456790123458,0)" xlink:href="#ak"/></g><g id="R"><use transform="matrix(0.06172839506172839,0,0,0.06172839506172839,0,0)" xlink:href="#ah"/><use transform="matrix(0.06172839506172839,0,0,0.06172839506172839,18.456790123456788,0)" xlink:href="#al"/><use transform="matrix(0.06172839506172839,0,0,0.06172839506172839,30.80246913580247,0)" xlink:href="#ak"/><use transform="matrix(0.06172839506172839,0,0,0.06172839506172839,36.97530864197531,0)" xlink:href="#ao"/><use transform="matrix(0.06172839506172839,0,0,0.06172839506172839,44.32098765432099,0)" xlink:href="#ap"/><use transform="matrix(0.06172839506172839,0,0,0.06172839506172839,49.19753086419753,0)" xlink:href="#aq"/><use transform="matrix(0.06172839506172839,0,0,0.06172839506172839,60.308641975308646,0)" xlink:href="#aD"/><use transform="matrix(0.06172839506172839,0,0,0.06172839506172839,66.48148148148148,0)" xlink:href="#aI"/><use transform="matrix(0.06172839506172839,0,0,0.06172839506172839,77.5925925925926,0)" xlink:href="#aE"/><use transform="matrix(0.06172839506172839,0,0,0.06172839506172839,83.76543209876543,0)" xlink:href="#aD"/><use transform="matrix(0.06172839506172839,0,0,0.06172839506172839,89.93827160493827,0)" xlink:href="#aI"/><use transform="matrix(0.06172839506172839,0,0,0.06172839506172839,101.04938271604938,0)" xlink:href="#aE"/></g><g id="S"><use transform="matrix(0.06172839506172839,0,0,0.06172839506172839,0,0)" xlink:href="#aI"/><use transform="matrix(0.06172839506172839,0,0,0.06172839506172839,11.11111111111111,0)" xlink:href="#aT"/><use transform="matrix(0.06172839506172839,0,0,0.06172839506172839,24.074074074074073,0)" xlink:href="#aT"/></g><g id="T"><use transform="matrix(0.06172839506172839,0,0,0.06172839506172839,0,0)" xlink:href="#as"/><use transform="matrix(0.06172839506172839,0,0,0.06172839506172839,12.345679012345679,0)" xlink:href="#am"/><use transform="matrix(0.06172839506172839,0,0,0.06172839506172839,24.691358024691358,0)" xlink:href="#ak"/></g><g id="U"><use transform="matrix(0.06172839506172839,0,0,0.06172839506172839,0,0)" xlink:href="#ah"/><use transform="matrix(0.06172839506172839,0,0,0.06172839506172839,18.456790123456788,0)" xlink:href="#al"/><use transform="matrix(0.06172839506172839,0,0,0.06172839506172839,30.80246913580247,0)" xlink:href="#ak"/><use transform="matrix(0.06172839506172839,0,0,0.06172839506172839,36.97530864197531,0)" xlink:href="#ao"/><use transform="matrix(0.06172839506172839,0,0,0.06172839506172839,44.32098765432099,0)" xlink:href="#ap"/><use transform="matrix(0.06172839506172839,0,0,0.06172839506172839,49.19753086419753,0)" xlink:href="#aq"/><use transform="matrix(0.06172839506172839,0,0,0.06172839506172839,60.308641975308646,0)" xlink:href="#aD"/><use transform="matrix(0.06172839506172839,0,0,0.06172839506172839,66.48148148148148,0)" xlink:href="#aj"/><use transform="matrix(0.06172839506172839,0,0,0.06172839506172839,78.82716049382717,0)" xlink:href="#aR"/><use transform="matrix(0.06172839506172839,0,0,0.06172839506172839,86.17283950617285,0)" xlink:href="#aH"/><use transform="matrix(0.06172839506172839,0,0,0.06172839506172839,98.51851851851853,0)" xlink:href="#aE"/><use transform="matrix(0.06172839506172839,0,0,0.06172839506172839,104.69135802469137,0)" xlink:href="#aD"/><use transform="matrix(0.06172839506172839,0,0,0.06172839506172839,110.8641975308642,0)" xlink:href="#aj"/><use transform="matrix(0.06172839506172839,0,0,0.06172839506172839,123.20987654320989,0)" xlink:href="#aR"/><use transform="matrix(0.06172839506172839,0,0,0.06172839506172839,130.55555555555557,0)" xlink:href="#aH"/><use transform="matrix(0.06172839506172839,0,0,0.06172839506172839,142.90123456790124,0)" xlink:href="#aE"/></g><g id="V"><use transform="matrix(0.06172839506172839,0,0,0.06172839506172839,0,0)" xlink:href="#as"/><use transform="matrix(0.06172839506172839,0,0,0.06172839506172839,12.345679012345679,0)" xlink:href="#am"/><use transform="matrix(0.06172839506172839,0,0,0.06172839506172839,24.691358024691358,0)" xlink:href="#ak"/></g><use transform="matrix(0.06172839506172839,0,0,0.06172839506172839,0,0)" xlink:href="#ap" id="W"/><use transform="matrix(0.06172839506172839,0,0,0.06172839506172839,0,0)" xlink:href="#aJ" id="X"/><g id="Y"><use transform="matrix(0.06172839506172839,0,0,0.06172839506172839,0,0)" xlink:href="#al"/><use transform="matrix(0.06172839506172839,0,0,0.06172839506172839,12.345679012345679,0)" xlink:href="#as"/><use transform="matrix(0.06172839506172839,0,0,0.06172839506172839,24.691358024691358,0)" xlink:href="#at"/><use transform="matrix(0.06172839506172839,0,0,0.06172839506172839,29.5679012345679,0)" xlink:href="#au"/><use transform="matrix(0.06172839506172839,0,0,0.06172839506172839,41.913580246913575,0)" xlink:href="#aj"/><use transform="matrix(0.06172839506172839,0,0,0.06172839506172839,54.25925925925925,0)" xlink:href="#ak"/><use transform="matrix(0.06172839506172839,0,0,0.06172839506172839,60.432098765432094,0)" xlink:href="#al"/><use transform="matrix(0.06172839506172839,0,0,0.06172839506172839,72.77777777777777,0)" xlink:href="#aD"/><use transform="matrix(0.06172839506172839,0,0,0.06172839506172839,78.9506172839506,0)" xlink:href="#ap"/><use transform="matrix(0.06172839506172839,0,0,0.06172839506172839,83.82716049382715,0)" xlink:href="#aE"/><use transform="matrix(0.06172839506172839,0,0,0.06172839506172839,89.99999999999999,0)" xlink:href="#aD"/><use transform="matrix(0.06172839506172839,0,0,0.06172839506172839,96.17283950617282,0)" xlink:href="#at"/><use transform="matrix(0.06172839506172839,0,0,0.06172839506172839,101.04938271604937,0)" xlink:href="#aE"/></g><g id="Z"><use transform="matrix(0.06172839506172839,0,0,0.06172839506172839,0,0)" xlink:href="#al"/><use transform="matrix(0.06172839506172839,0,0,0.06172839506172839,12.345679012345679,0)" xlink:href="#as"/><use transform="matrix(0.06172839506172839,0,0,0.06172839506172839,24.691358024691358,0)" xlink:href="#at"/><use transform="matrix(0.06172839506172839,0,0,0.06172839506172839,29.5679012345679,0)" xlink:href="#au"/><use transform="matrix(0.06172839506172839,0,0,0.06172839506172839,41.913580246913575,0)" xlink:href="#aj"/><use transform="matrix(0.06172839506172839,0,0,0.06172839506172839,54.25925925925925,0)" xlink:href="#ak"/><use transform="matrix(0.06172839506172839,0,0,0.06172839506172839,60.432098765432094,0)" xlink:href="#al"/><use transform="matrix(0.06172839506172839,0,0,0.06172839506172839,72.77777777777777,0)" xlink:href="#aD"/><use transform="matrix(0.06172839506172839,0,0,0.06172839506172839,78.9506172839506,0)" xlink:href="#ap"/><use transform="matrix(0.06172839506172839,0,0,0.06172839506172839,83.82716049382715,0)" xlink:href="#aE"/><use transform="matrix(0.06172839506172839,0,0,0.06172839506172839,89.99999999999999,0)" xlink:href="#aD"/><use transform="matrix(0.06172839506172839,0,0,0.06172839506172839,96.17283950617282,0)" xlink:href="#at"/><use transform="matrix(0.06172839506172839,0,0,0.06172839506172839,101.04938271604937,0)" xlink:href="#aE"/><use transform="matrix(0.06172839506172839,0,0,0.06172839506172839,107.2222222222222,0)" xlink:href="#aS"/><use transform="matrix(0.06172839506172839,0,0,0.06172839506172839,113.39506172839504,0)" xlink:href="#as"/><use transform="matrix(0.06172839506172839,0,0,0.06172839506172839,125.74074074074072,0)" xlink:href="#am"/><use transform="matrix(0.06172839506172839,0,0,0.06172839506172839,138.0864197530864,0)" xlink:href="#ak"/></g><g id="aa"><use transform="matrix(0.06172839506172839,0,0,0.06172839506172839,0,0)" xlink:href="#al"/><use transform="matrix(0.06172839506172839,0,0,0.06172839506172839,12.345679012345679,0)" xlink:href="#as"/><use transform="matrix(0.06172839506172839,0,0,0.06172839506172839,24.691358024691358,0)" xlink:href="#at"/><use transform="matrix(0.06172839506172839,0,0,0.06172839506172839,29.5679012345679,0)" xlink:href="#au"/><use transform="matrix(0.06172839506172839,0,0,0.06172839506172839,41.913580246913575,0)" xlink:href="#aj"/><use transform="matrix(0.06172839506172839,0,0,0.06172839506172839,54.25925925925925,0)" xlink:href="#ak"/><use transform="matrix(0.06172839506172839,0,0,0.06172839506172839,60.432098765432094,0)" xlink:href="#al"/></g><path fill="#333" d="M233-177c-1 41-23 64-60 70L243 0h-38l-65-103H63V0H30v-248c88 3 205-21 203 71zM63-129c60-2 137 13 137-47 0-61-80-42-137-45v92" id="aU"/><path fill="#333" d="M30 0v-248h187v28H63v79h144v27H63v87h162V0H30" id="aV"/><path fill="#333" d="M127-220V0H93v-220H8v-28h204v28h-85" id="aW"/><path fill="#333" d="M232-93c-1 65-40 97-104 97C67 4 28-28 28-90v-158h33c8 89-33 224 67 224 102 0 64-133 71-224h33v155" id="aX"/><path fill="#333" d="M190 0L58-211 59 0H30v-248h39L202-35l-2-213h31V0h-41" id="aY"/><g id="ab"><use transform="matrix(0.06172839506172839,0,0,0.06172839506172839,0,0)" xlink:href="#aU"/><use transform="matrix(0.06172839506172839,0,0,0.06172839506172839,15.987654320987653,0)" xlink:href="#aV"/><use transform="matrix(0.06172839506172839,0,0,0.06172839506172839,30.80246913580247,0)" xlink:href="#aW"/><use transform="matrix(0.06172839506172839,0,0,0.06172839506172839,44.32098765432099,0)" xlink:href="#aX"/><use transform="matrix(0.06172839506172839,0,0,0.06172839506172839,60.30864197530864,0)" xlink:href="#aU"/><use transform="matrix(0.06172839506172839,0,0,0.06172839506172839,76.29629629629629,0)" xlink:href="#aY"/></g><g id="ac"><use transform="matrix(0.06172839506172839,0,0,0.06172839506172839,0,0)" xlink:href="#al"/><use transform="matrix(0.06172839506172839,0,0,0.06172839506172839,12.345679012345679,0)" xlink:href="#as"/><use transform="matrix(0.06172839506172839,0,0,0.06172839506172839,24.691358024691358,0)" xlink:href="#at"/><use transform="matrix(0.06172839506172839,0,0,0.06172839506172839,29.5679012345679,0)" xlink:href="#au"/><use transform="matrix(0.06172839506172839,0,0,0.06172839506172839,41.913580246913575,0)" xlink:href="#aj"/><use transform="matrix(0.06172839506172839,0,0,0.06172839506172839,54.25925925925925,0)" xlink:href="#ak"/><use transform="matrix(0.06172839506172839,0,0,0.06172839506172839,60.432098765432094,0)" xlink:href="#al"/></g><path fill="#333" d="M63-220v92h138v28H63V0H30v-248h175v28H63" id="aZ"/><g id="ad"><use transform="matrix(0.06172839506172839,0,0,0.06172839506172839,0,0)" xlink:href="#aZ"/><use transform="matrix(0.06172839506172839,0,0,0.06172839506172839,13.518518518518517,0)" xlink:href="#ap"/><use transform="matrix(0.06172839506172839,0,0,0.06172839506172839,18.39506172839506,0)" xlink:href="#aj"/></g><g id="ae"><use transform="matrix(0.06172839506172839,0,0,0.06172839506172839,0,0)" xlink:href="#aU"/><use transform="matrix(0.06172839506172839,0,0,0.06172839506172839,15.987654320987653,0)" xlink:href="#aV"/><use transform="matrix(0.06172839506172839,0,0,0.06172839506172839,30.80246913580247,0)" xlink:href="#aW"/><use transform="matrix(0.06172839506172839,0,0,0.06172839506172839,44.32098765432099,0)" xlink:href="#aX"/><use transform="matrix(0.06172839506172839,0,0,0.06172839506172839,60.30864197530864,0)" xlink:href="#aU"/><use transform="matrix(0.06172839506172839,0,0,0.06172839506172839,76.29629629629629,0)" xlink:href="#aY"/></g><use transform="matrix(0.06172839506172839,0,0,0.06172839506172839,0,0)" xlink:href="#aD" id="af"/><use transform="matrix(0.06172839506172839,0,0,0.06172839506172839,0,0)" xlink:href="#aE" id="ag"/></defs></g></svg>